<svg width="24" height="24" viewBox="0 0 24 24" fill="none" xmlns="http://www.w3.org/2000/svg">
<path d="M10.2678 4.99995C11.0376 3.66667 12.9619 3.66669 13.7317 4.99995L20.6604 17C21.4301 18.3333 20.4675 20 18.928 20V19C19.6978 19 20.179 18.1666 19.7942 17.5L12.8655 5.49995C12.4806 4.83347 11.519 4.83345 11.134 5.49995L4.20533 17.5C3.82055 18.1666 4.30182 19 5.07155 19V20C3.58006 20 2.63069 18.4359 3.27272 17.126L3.33912 17L10.2678 4.99995ZM18.928 19V20H5.07155V19H18.928Z" fill="#A10076"/>
<path d="M12.7285 14.4473H11.2344L11.0762 8.5H12.8926L12.7285 14.4473ZM11.9844 17.0898C11.8086 17.0898 11.6445 17.0449 11.4922 16.9551C11.3398 16.8613 11.2188 16.7402 11.1289 16.5918C11.043 16.4395 11 16.2754 11 16.0996C11 15.9277 11.043 15.7676 11.1289 15.6191C11.2188 15.4668 11.3398 15.3477 11.4922 15.2617C11.6445 15.1758 11.8086 15.1328 11.9844 15.1328C12.1562 15.1328 12.3164 15.1758 12.4648 15.2617C12.6172 15.3477 12.7383 15.4668 12.8281 15.6191C12.9219 15.7676 12.9688 15.9277 12.9688 16.0996C12.9688 16.2754 12.9219 16.4395 12.8281 16.5918C12.7383 16.7402 12.6172 16.8613 12.4648 16.9551C12.3164 17.0449 12.1562 17.0898 11.9844 17.0898Z" fill="#A10076"/>
</svg>
