<svg width="24" height="24" viewBox="0 0 24 24" fill="none" xmlns="http://www.w3.org/2000/svg">
<g clip-path="url(#clip0_5074_670)">
<path d="M15.1016 17.5106C15.1016 16.1357 16.1823 15.0212 17.5156 15.0212C18.8489 15.0212 19.9296 16.1357 19.9296 17.5106C19.9296 18.8856 18.8489 20 17.5156 20C16.1823 20 15.1016 18.8856 15.1016 17.5106ZM15.7963 17.5106C15.7963 18.4875 16.5682 19.2908 17.5226 19.2908C18.477 19.2908 19.2489 18.4948 19.2489 17.5106C19.2489 16.5264 18.477 15.7304 17.5226 15.7304C16.5752 15.7304 15.7963 16.5264 15.7963 17.5106Z" fill="currentColor"/>
<path d="M4.75781 17.5106C4.75781 16.1357 5.83851 15.0212 7.17185 15.0212C8.50518 15.0212 9.58588 16.1357 9.58588 17.5106C9.58588 18.8856 8.50518 20 7.17185 20C5.83851 20 4.75781 18.8856 4.75781 17.5106ZM5.44553 17.5106C5.44553 18.4875 6.21746 19.2908 7.17185 19.2908C8.12623 19.2908 8.89816 18.4948 8.89816 17.5106C8.89816 16.5337 8.12623 15.7304 7.17185 15.7304C6.22448 15.7304 5.44553 16.5264 5.44553 17.5106Z" fill="currentColor"/>
<path d="M17.1719 17.156H17.8596V17.8652H17.1719V17.156Z" fill="currentColor"/>
<path d="M6.82812 17.156H7.51584V17.8652H6.82812V17.156Z" fill="currentColor"/>
<path d="M3.72632 18.227H5.13684V17.5178H3.72632C3.0807 17.5178 2.69474 17.1198 2.69474 16.454C2.69474 14.7173 3.81053 11.4753 6.49123 11.4753H8.37895L10.7228 8.45041C10.9825 8.11029 11.3754 7.9149 11.7965 7.9149H17.4737C17.8596 7.9149 18.2246 8.08134 18.4912 8.37804C19.4526 9.44182 20.2807 10.5418 20.9544 11.6562C21.186 12.047 21.3123 12.4956 21.3123 12.966V16.454C21.3123 17.0402 20.8491 17.5178 20.2807 17.5178H19.5649V18.227H20.2807C21.2281 18.227 22.007 17.431 22.007 16.4468V12.9588C22.007 12.3581 21.8456 11.772 21.5439 11.2727C20.8491 10.1221 19.993 8.98591 19.0035 7.88596C18.6105 7.45177 18.0561 7.19849 17.4807 7.19849H11.8035C11.1719 7.19849 10.5825 7.48795 10.1895 8.00174L8.04912 10.7589H6.49123C3.55789 10.7589 2 14.0587 2 16.4468C2 17.5106 2.69474 18.227 3.72632 18.227Z" fill="currentColor"/>
<path d="M11.3121 17.5107H9.21387V18.2199H11.3121V17.5107Z" fill="currentColor"/>
<path d="M15.4808 17.5107H14.0703V18.2199H15.4808V17.5107Z" fill="currentColor"/>
<path d="M21.3122 19.2908H12.3438V20H21.3122V19.2908Z" fill="currentColor"/>
<path d="M10.6249 19.2908H3.38281V20H10.6249V19.2908Z" fill="currentColor"/>
<path d="M11.6564 18.5816H13.7266C13.9231 18.5816 14.1126 18.502 14.2389 18.3573C14.3652 18.2198 14.4284 18.0389 14.4143 17.8435L14.2178 15.0429L13.5301 15.0936L13.7266 17.8941L11.6564 17.8652L12.3231 7.57483L11.6354 7.52417L10.9687 17.8362C10.9547 18.0244 11.0178 18.2053 11.1442 18.3428C11.2705 18.4875 11.4599 18.5671 11.6564 18.5671V18.5816Z" fill="currentColor"/>
<path d="M14.1268 13.6132L13.4404 13.6582L13.4805 14.3082L14.1669 14.2632L14.1268 13.6132Z" fill="currentColor"/>
<path d="M13.741 7.53688L13.0547 7.58252L13.3848 12.8615L14.0711 12.8158L13.741 7.53688Z" fill="currentColor"/>
<path d="M13.6494 11.8227H18.0003C18.4915 11.8227 18.8985 11.4102 18.8985 10.8964C18.8985 10.7445 18.8634 10.5997 18.7933 10.4622L18.0284 8.95703L17.4178 9.28991L18.1827 10.7951C18.1827 10.7951 18.2038 10.8602 18.2038 10.8964C18.2038 11.0122 18.1126 11.1135 18.0003 11.1135H13.6494V11.8227Z" fill="currentColor"/>
<path d="M11.7262 11.1135H9.92969V11.8227H11.7262V11.1135Z" fill="currentColor"/>
<path d="M21.6559 15.3757H20.2734V16.0849H21.6559V15.3757Z" fill="currentColor"/>
<path d="M4.41413 15.0212H2.44922V15.7304H4.41413V15.0212Z" fill="currentColor"/>
<path d="M2.87012 14.3122H5.99994C6.1824 14.3122 6.35784 14.2326 6.49117 14.1023L6.9824 13.5958C7.12275 13.451 7.18591 13.2412 7.18591 13.0892C7.18591 12.5826 6.78591 12.1702 6.29468 12.1702H3.7052V12.8793H6.29468C6.40696 12.8793 6.49819 12.9734 6.49819 13.0892L6.00696 13.5958H2.87012V14.3049V14.3122Z" fill="currentColor"/>
<path d="M11.3891 7.67625L12.0417 7.43744C12.0136 7.36508 11.9996 7.27824 11.9996 7.19864C11.9996 6.80786 12.3084 6.48945 12.6873 6.48945C13.0663 6.48945 13.375 6.80786 13.375 7.19864C13.375 7.27824 13.361 7.35784 13.3329 7.43744L13.9856 7.67625C14.0347 7.52428 14.0628 7.36508 14.0628 7.20587C14.0628 6.42433 13.4452 5.78027 12.6803 5.78027C11.9224 5.78027 11.2979 6.41709 11.2979 7.20587C11.2979 7.37231 11.3259 7.53152 11.375 7.68348L11.3891 7.67625Z" fill="currentColor"/>
<path d="M16.6948 7.84261C17.2211 7.43736 17.5228 6.81502 17.5228 6.13478C17.5158 4.95522 16.5895 4 15.4456 4C14.4351 4 13.3614 4.68024 12.4141 5.91045L12.9544 6.35188C13.7544 5.30981 14.6597 4.70918 15.4456 4.70918C16.2316 4.70918 16.8281 5.346 16.8281 6.13478C16.8281 6.58345 16.6246 7.00317 16.2737 7.27092L16.6877 7.84261H16.6948Z" fill="currentColor"/>
<path d="M9.92955 8.26956H10.7576V7.56038H9.92955C9.17166 7.56038 8.54709 6.92356 8.54709 6.13478C8.54709 5.35323 9.16464 4.70918 9.92955 4.70918C10.7155 4.70918 11.6208 5.30981 12.4208 6.35188L12.9611 5.91045C12.0208 4.68024 10.9401 4 9.92955 4C8.78569 4 7.85938 4.95522 7.85938 6.13478C7.85938 7.31434 8.78569 8.26956 9.92955 8.26956Z" fill="currentColor"/>
<path d="M5.10178 4.37622H4.41406V5.80182H5.10178V4.37622Z" fill="currentColor"/>
<path d="M5.10178 7.22021H4.41406V8.64581H5.10178V7.22021Z" fill="currentColor"/>
<path d="M4.06996 6.15649H2.6875V6.86568H4.06996V6.15649Z" fill="currentColor"/>
<path d="M6.82777 6.15649H5.44531V6.86568H6.82777V6.15649Z" fill="currentColor"/>
</g>
<defs>
<clipPath id="clip0_5074_670">
<rect width="20" height="16" fill="white" transform="translate(2 4)"/>
</clipPath>
</defs>
</svg>
