<svg width="88" height="84" viewBox="0 0 88 84" fill="none" xmlns="http://www.w3.org/2000/svg">
<g clip-path="url(#clip0_5127_1632)">
<path d="M29.542 15.1384H17.8277C14.8596 15.1384 12.4404 12.7192 12.4404 9.7511C12.4404 6.78298 14.8596 4.36383 17.8277 4.36383C20.7958 4.36383 23.215 6.78298 23.215 9.7511C23.215 10.3094 22.759 10.7653 22.2008 10.7653C21.6425 10.7653 21.1866 10.3094 21.1866 9.7511C21.1866 7.89951 19.6793 6.3922 17.8277 6.3922C15.9761 6.3922 14.4688 7.89951 14.4688 9.7511C14.4688 11.6027 15.9761 13.11 17.8277 13.11H29.542C31.3936 13.11 32.9009 11.6027 32.9009 9.7511C32.9009 7.89951 31.3936 6.3922 29.542 6.3922H28.0626C27.5043 6.3922 27.0484 5.93628 27.0484 5.37801C27.0484 4.81975 27.5043 4.36383 28.0626 4.36383H29.542C32.5101 4.36383 34.9292 6.78298 34.9292 9.7511C34.9292 12.7192 32.5101 15.1384 29.542 15.1384Z" fill="currentColor"/>
<path d="M28.0621 8.7555C27.5038 8.7555 27.0479 8.29958 27.0479 7.74131V5.37799C27.0479 3.52641 25.5406 2.01909 23.689 2.01909C21.8374 2.01909 20.3301 3.52641 20.3301 5.37799C20.3301 5.93625 19.8742 6.39217 19.3159 6.39217C18.7577 6.39217 18.3018 5.93625 18.3018 5.37799C18.3018 2.40987 20.7209 -0.00927734 23.689 -0.00927734C26.6571 -0.00927734 29.0763 2.40987 29.0763 5.37799V7.74131C29.0763 8.29958 28.6204 8.7555 28.0621 8.7555Z" fill="currentColor"/>
<path d="M60.7396 12.226H48.0484C47.4901 12.226 47.0342 11.7701 47.0342 11.2118C47.0342 10.6535 47.4901 10.1976 48.0484 10.1976H60.7396C61.2979 10.1976 61.7538 10.6535 61.7538 11.2118C61.7538 11.7701 61.2979 12.226 60.7396 12.226Z" fill="currentColor"/>
<path d="M66.6196 12.226H65.2984C64.7401 12.226 64.2842 11.7701 64.2842 11.2118C64.2842 10.6535 64.7401 10.1976 65.2984 10.1976H66.6196C67.1779 10.1976 67.6338 10.6535 67.6338 11.2118C67.6338 11.7701 67.1779 12.226 66.6196 12.226Z" fill="currentColor"/>
<path d="M49.0809 83.9167H30.5093C29.951 83.9167 29.4951 83.4608 29.4951 82.9025C29.4951 82.3442 29.951 81.8883 30.5093 81.8883H49.0809C49.6392 81.8883 50.0951 82.3442 50.0951 82.9025C50.0951 83.4608 49.6392 83.9167 49.0809 83.9167Z" fill="currentColor"/>
<path d="M54.9614 83.9167H53.6402C53.0819 83.9167 52.626 83.4608 52.626 82.9025C52.626 82.3442 53.0819 81.8883 53.6402 81.8883H54.9614C55.5197 81.8883 55.9756 82.3442 55.9756 82.9025C55.9756 83.4608 55.5197 83.9167 54.9614 83.9167Z" fill="currentColor"/>
<path d="M43.3025 21.0094H34.6773C34.119 21.0094 33.6631 20.5535 33.6631 19.9952C33.6631 19.4369 34.119 18.981 34.6773 18.981H43.3025C43.8607 18.981 44.3167 19.4369 44.3167 19.9952C44.3167 20.5535 43.8607 21.0094 43.3025 21.0094Z" fill="currentColor"/>
<path d="M49.183 21.0094H48.0572C47.4989 21.0094 47.043 20.5535 47.043 19.9952C47.043 19.4369 47.4989 18.981 48.0572 18.981H49.183C49.7413 18.981 50.1972 19.4369 50.1972 19.9952C50.1972 20.5535 49.7413 21.0094 49.183 21.0094Z" fill="currentColor"/>
<path d="M30.1094 40.679C29.6349 40.679 29.2162 40.344 29.1231 39.8695C29.0115 39.3205 29.365 38.7902 29.914 38.6785L34.4825 37.7667C35.0314 37.655 35.5618 38.0086 35.6734 38.5576C35.7851 39.1065 35.4315 39.6369 34.8826 39.7485L30.3141 40.6604C30.249 40.6697 30.1838 40.679 30.1187 40.679H30.1094Z" fill="currentColor"/>
<path d="M13.2032 44.01C12.3565 44.01 11.5284 43.7215 10.8584 43.1726C9.99313 42.4654 9.5 41.4233 9.5 40.3068V36.8549C9.5 35.0963 10.7561 33.5704 12.4774 33.2168L83.0329 19.1113C84.1215 18.888 85.2474 19.1764 86.1127 19.8836C86.978 20.5907 87.4711 21.6328 87.4711 22.7493V26.2013C87.4711 27.9598 86.215 29.4857 84.4937 29.8393L38.5857 39.0228C38.0274 39.1344 37.5063 38.7809 37.3947 38.2319C37.283 37.683 37.6366 37.1526 38.1856 37.0409L84.0936 27.8575C84.8752 27.6993 85.4428 27.0108 85.4428 26.2106V22.7586C85.4428 22.2562 85.2195 21.7817 84.8287 21.456C84.4379 21.1304 83.9261 21.0094 83.433 21.1025L12.8775 35.1987C12.0959 35.3568 11.5284 36.0454 11.5284 36.8456V40.2975C11.5284 40.7999 11.7517 41.2745 12.1425 41.6001C12.5332 41.9165 13.045 42.0467 13.5381 41.9444L25.1501 39.6183C25.699 39.5066 26.2294 39.8602 26.341 40.4092C26.4527 40.9581 26.0991 41.4885 25.5501 41.6001L13.9382 43.9262C13.6963 43.9727 13.4544 44.0007 13.2032 44.0007V44.01Z" fill="currentColor"/>
<path d="M14.9058 78.0642C14.3475 78.0642 13.8916 77.6083 13.8916 77.05V42.7074C13.8916 42.1491 14.3475 41.6932 14.9058 41.6932C15.4641 41.6932 15.92 42.1491 15.92 42.7074V77.05C15.92 77.6083 15.4641 78.0642 14.9058 78.0642Z" fill="currentColor"/>
<path d="M82.2046 78.0642C81.6463 78.0642 81.1904 77.6083 81.1904 77.05V29.2531C81.1904 28.6949 81.6463 28.239 82.2046 28.239C82.7629 28.239 83.2188 28.6949 83.2188 29.2531V77.05C83.2188 77.6083 82.7629 78.0642 82.2046 78.0642Z" fill="currentColor"/>
<path d="M86.9592 78.0642H1.01418C0.455917 78.0642 0 77.6083 0 77.05C0 76.4917 0.455917 76.0358 1.01418 76.0358H86.9685C87.5268 76.0358 87.9827 76.4917 87.9827 77.05C87.9827 77.6083 87.5268 78.0642 86.9685 78.0642H86.9592Z" fill="currentColor"/>
<path d="M9.05324 78.0642C8.49498 78.0642 8.03906 77.6082 8.03906 77.05V68.2759C8.03906 67.7176 8.49498 67.2617 9.05324 67.2617C9.61151 67.2617 10.0674 67.7176 10.0674 68.2759V77.05C10.0674 77.6082 9.61151 78.0642 9.05324 78.0642Z" fill="currentColor"/>
<path d="M8.5505 69.2901C4.25186 69.2901 0.762695 65.7916 0.762695 61.5023C0.762695 61.4185 0.772 61.3348 0.790609 61.251L5.52656 42.8376C5.5917 42.6515 6.57797 39.8602 10.644 40.3998C11.2023 40.4743 11.5837 40.9767 11.5186 41.535C11.4442 42.0839 10.9417 42.4747 10.3835 42.4096C8.17833 42.1211 7.57354 43.1818 7.47119 43.4145L2.78176 61.6325C2.84689 64.7588 5.40561 67.2803 8.5505 67.2803C10.9417 67.2803 13.1097 65.7823 13.9471 63.5492C14.1425 63.0282 14.7286 62.7584 15.2497 62.9631C15.7707 63.1585 16.0406 63.7446 15.8359 64.2657C14.7007 67.2803 11.7698 69.3087 8.5412 69.3087L8.5505 69.2901Z" fill="currentColor"/>
<path d="M50.4574 67.82C48.1034 67.82 45.6005 67.6804 45.4982 67.6804C44.9399 67.6525 44.5119 67.1687 44.5398 66.6104C44.5677 66.0522 45.0609 65.6335 45.6098 65.6521C45.6378 65.6521 48.1686 65.7916 50.4574 65.7916C51.788 65.7916 51.9275 64.7588 51.9369 64.5541V61.6325C51.9369 59.8368 50.6714 58.9994 50.4481 58.8691L43.7676 56.0406C43.6001 55.9661 43.4512 55.8452 43.3396 55.6963C43.3396 55.6963 41.2461 52.7654 40.2226 51.3046C39.6364 50.4672 37.9058 50.2718 37.3382 50.2718H28.2012C24.6842 50.2718 21.8184 53.1376 21.8184 56.6547V64.5634C21.8277 64.8705 22.0045 65.6335 23.335 65.6614H24.8796C25.4378 65.6614 25.8937 66.1173 25.8937 66.6756C25.8937 67.2338 25.4378 67.6897 24.8796 67.6897H23.3071C20.7298 67.6432 19.79 65.8009 19.79 64.5728V56.6547C19.79 52.0211 23.5583 48.2435 28.2012 48.2435H37.3382C37.6639 48.2435 40.5761 48.2993 41.8695 50.1323C42.7255 51.3418 44.3072 53.5656 44.819 54.282L51.2855 57.0269C51.4623 57.1199 53.9466 58.4597 53.9466 61.6325V64.6193C53.8629 65.9405 52.8673 67.82 50.4481 67.82H50.4574Z" fill="currentColor"/>
<path d="M37.339 67.6804H33.4312C32.8729 67.6804 32.417 67.2245 32.417 66.6662C32.417 66.108 32.8729 65.652 33.4312 65.652H37.339C37.8973 65.652 38.3532 66.108 38.3532 66.6662C38.3532 67.2245 37.8973 67.6804 37.339 67.6804Z" fill="currentColor"/>
<path d="M28.8067 70.7509C26.2945 70.7509 24.2568 68.7132 24.2568 66.201C24.2568 63.6889 26.2945 61.6512 28.8067 61.6512C31.3189 61.6512 33.3566 63.6889 33.3566 66.201C33.3566 68.7132 31.3189 70.7509 28.8067 70.7509ZM28.8067 63.6796C27.411 63.6796 26.2852 64.8147 26.2852 66.201C26.2852 67.5874 27.4203 68.7225 28.8067 68.7225C30.1931 68.7225 31.3282 67.5874 31.3282 66.201C31.3282 64.8147 30.1931 63.6796 28.8067 63.6796Z" fill="currentColor"/>
<path d="M41.9727 70.7509C39.4605 70.7509 37.4229 68.7132 37.4229 66.201C37.4229 63.6889 39.4605 61.6512 41.9727 61.6512C44.4849 61.6512 46.5226 63.6889 46.5226 66.201C46.5226 68.7132 44.4849 70.7509 41.9727 70.7509ZM41.9727 63.6796C40.5771 63.6796 39.4512 64.8147 39.4512 66.201C39.4512 67.5874 40.5864 68.7225 41.9727 68.7225C43.3591 68.7225 44.4942 67.5874 44.4942 66.201C44.4942 64.8147 43.3591 63.6796 41.9727 63.6796Z" fill="currentColor"/>
<path d="M59.0738 70.7509C58.5155 70.7509 58.0596 70.295 58.0596 69.7367V44.652C58.0596 42.0002 60.2182 39.8509 62.8607 39.8509H78.3991C81.0508 39.8509 83.2001 42.0095 83.2001 44.652C83.2001 45.2102 82.7442 45.6662 82.186 45.6662C81.6277 45.6662 81.1718 45.2102 81.1718 44.652C81.1718 43.1167 79.925 41.87 78.3897 41.87H62.8514C61.3161 41.87 60.0693 43.1167 60.0693 44.652V69.7367C60.0693 70.295 59.6134 70.7509 59.0551 70.7509H59.0738Z" fill="currentColor"/>
<path d="M55.8638 77.785C55.3055 77.785 54.8496 77.3291 54.8496 76.7708V72.1186C54.8496 69.7553 56.7477 68.8714 57.7526 68.7318C57.7991 68.7318 57.8456 68.7318 57.8922 68.7318H71.0672C71.6255 68.7318 72.0814 69.1877 72.0814 69.746C72.0814 70.3043 71.6255 70.7602 71.0672 70.7602H57.9759C57.6689 70.8253 56.8687 71.0858 56.8687 72.1279V76.7801C56.8687 77.3384 56.4128 77.7943 55.8545 77.7943L55.8638 77.785Z" fill="currentColor"/>
<path d="M70.5275 54.6914C67.5315 54.6914 65.0938 52.2537 65.0938 49.2576V47.0618C65.0938 46.5035 65.5497 46.0476 66.1079 46.0476C66.6662 46.0476 67.1221 46.5035 67.1221 47.0618V49.2576C67.1221 51.1371 68.648 52.6631 70.5275 52.6631C72.407 52.6631 73.933 51.1371 73.933 49.2576V47.0618C73.933 46.5035 74.3889 46.0476 74.9471 46.0476C75.5054 46.0476 75.9613 46.5035 75.9613 47.0618V49.2576C75.9613 52.2537 73.5236 54.6914 70.5275 54.6914Z" fill="currentColor"/>
<path d="M63.3075 54.6914C61 54.6914 58.9437 53.2306 58.1807 51.0627C57.9946 50.5324 58.2738 49.9555 58.8041 49.7694C59.3252 49.5833 59.9113 49.8624 60.0974 50.3928C60.572 51.7512 61.8653 52.6724 63.3168 52.6724C64.4426 52.6724 65.494 52.1141 66.1267 51.193C66.4431 50.7278 67.0758 50.6161 67.5317 50.9325C67.9969 51.2488 68.1085 51.8815 67.7922 52.3374C66.778 53.8168 65.1032 54.7007 63.3075 54.7007V54.6914Z" fill="currentColor"/>
<path d="M77.8875 54.6915C76.0639 54.6915 74.3798 53.7889 73.3656 52.2723C73.0585 51.8071 73.1795 51.1837 73.6447 50.8673C74.1099 50.5603 74.7333 50.6813 75.0497 51.1465C75.6824 52.0955 76.7431 52.6724 77.8875 52.6724C79.032 52.6724 80.0648 52.1141 80.6975 51.193C81.0138 50.7278 81.6465 50.6161 82.1024 50.9325C82.5677 51.2488 82.6793 51.8815 82.363 52.3374C81.3488 53.8169 79.674 54.7008 77.8782 54.7008L77.8875 54.6915Z" fill="currentColor"/>
<path d="M64.647 65.2892C64.0887 65.2892 63.6328 64.8333 63.6328 64.275V61.2418C63.6328 60.6835 64.0887 60.2276 64.647 60.2276C65.2053 60.2276 65.6612 60.6835 65.6612 61.2418V64.275C65.6612 64.8333 65.2053 65.2892 64.647 65.2892Z" fill="currentColor"/>
</g>
<defs>
<clipPath id="clip0_5127_1632">
<rect width="87.9734" height="83.9167" fill="white"/>
</clipPath>
</defs>
</svg>
