<svg width="88" height="62" viewBox="0 0 88 62" fill="none" xmlns="http://www.w3.org/2000/svg">
<g clip-path="url(#clip0_5127_828)">
<path d="M42.8998 55.0008H5.19479C2.3318 55.0008 0 52.669 0 49.806V10.5614C0 7.69844 2.3318 5.36664 5.19479 5.36664H27.7476C28.2878 5.36664 28.7289 5.80779 28.7289 6.34798C28.7289 6.88816 28.2878 7.32932 27.7476 7.32932H5.19479C3.41218 7.32932 1.95367 8.77882 1.95367 10.5704V49.806C1.95367 51.5886 3.40317 53.0471 5.19479 53.0471H42.8998C43.44 53.0471 43.8811 53.4882 43.8811 54.0284C43.8811 54.5686 43.44 55.0098 42.8998 55.0098V55.0008Z" fill="currentColor"/>
<path d="M65.5603 19.9869C65.0201 19.9869 64.579 19.5458 64.579 19.0056V10.5607C64.579 8.77805 63.1294 7.31955 61.3378 7.31955H38.785C38.2449 7.31955 37.8037 6.8784 37.8037 6.33821C37.8037 5.79802 38.2449 5.35687 38.785 5.35687H61.3378C64.2008 5.35687 66.5326 7.68868 66.5326 10.5517V18.9966C66.5326 19.5368 66.0915 19.9779 65.5513 19.9779L65.5603 19.9869Z" fill="currentColor"/>
<path d="M5.37489 12.1452C5.1138 12.1452 4.86172 12.0372 4.68165 11.8571C4.50159 11.6771 4.39355 11.425 4.39355 11.1639C4.39355 11.1009 4.39355 11.0378 4.41156 10.9748C4.42957 10.9118 4.44757 10.8488 4.47458 10.7948C4.49259 10.7317 4.5286 10.6777 4.56461 10.6237C4.60063 10.5697 4.63664 10.5157 4.68165 10.4797C4.91573 10.2456 5.24885 10.1465 5.56396 10.2096C5.62698 10.2186 5.69 10.2366 5.75302 10.2636C5.80704 10.2906 5.87006 10.3176 5.91508 10.3536C5.9691 10.3896 6.02312 10.4346 6.06813 10.4797C6.24819 10.6597 6.35623 10.9118 6.35623 11.1639C6.35623 11.416 6.24819 11.6771 6.06813 11.8571C5.88807 12.0372 5.63598 12.1452 5.37489 12.1452Z" fill="currentColor"/>
<path d="M9.28191 12.1452C9.21888 12.1452 9.15586 12.1452 9.09284 12.1272C9.02982 12.1092 8.9668 12.0912 8.91278 12.0732C8.84976 12.0462 8.79574 12.0192 8.74172 11.9832C8.6877 11.9472 8.63368 11.9021 8.58867 11.8571C8.4086 11.6771 8.30957 11.425 8.30957 11.1639C8.30957 11.1009 8.30957 11.0378 8.32758 10.9748C8.32758 10.9118 8.35459 10.8488 8.3816 10.7948C8.40861 10.7317 8.43561 10.6777 8.47163 10.6237C8.50764 10.5697 8.54365 10.5157 8.58867 10.4797C8.82275 10.2456 9.15586 10.1465 9.47997 10.2096C9.543 10.2186 9.59701 10.2366 9.66004 10.2636C9.71405 10.2906 9.77708 10.3176 9.8311 10.3536C9.88511 10.3896 9.93013 10.4346 9.97514 10.4797C10.1552 10.6597 10.2632 10.9118 10.2632 11.1639C10.2632 11.416 10.1552 11.6771 9.97514 11.8571C9.79508 12.0372 9.543 12.1452 9.28191 12.1452Z" fill="currentColor"/>
<path d="M13.1981 12.1452C13.1261 12.1452 13.0631 12.1452 13.0001 12.1272C12.937 12.1092 12.883 12.0912 12.82 12.0732C12.757 12.0462 12.703 12.0192 12.6489 11.9832C12.5949 11.9472 12.5499 11.9021 12.5049 11.8571C12.3158 11.6771 12.2168 11.425 12.2168 11.1639C12.2168 11.1009 12.2168 11.0378 12.2348 10.9748C12.2348 10.9118 12.2618 10.8488 12.2888 10.7948C12.3158 10.7317 12.3428 10.6777 12.3789 10.6237C12.4149 10.5697 12.4599 10.5157 12.5049 10.4797C12.73 10.2456 13.0721 10.1465 13.3872 10.2096C13.4502 10.2186 13.5132 10.2366 13.5673 10.2636C13.6303 10.2906 13.6843 10.3176 13.7383 10.3536C13.7923 10.3896 13.8464 10.4346 13.8914 10.4797C14.0714 10.6597 14.1705 10.9118 14.1705 11.1639C14.1705 11.416 14.0714 11.6771 13.8914 11.8571C13.7023 12.0372 13.4502 12.1452 13.1981 12.1452Z" fill="currentColor"/>
<path d="M41.6125 61.8333H24.9208C24.3806 61.8333 23.9395 61.3922 23.9395 60.852C23.9395 60.3118 24.3806 59.8707 24.9208 59.8707H41.6125C42.1527 59.8707 42.5939 60.3118 42.5939 60.852C42.5939 61.3922 42.1527 61.8333 41.6125 61.8333Z" fill="currentColor"/>
<path d="M26.7753 61.8333C26.2351 61.8333 25.7939 61.3922 25.7939 60.852V54.0186C25.7939 53.4784 26.2351 53.0373 26.7753 53.0373C27.3155 53.0373 27.7566 53.4784 27.7566 54.0186V60.852C27.7566 61.3922 27.3155 61.8333 26.7753 61.8333Z" fill="currentColor"/>
<path d="M39.7665 61.8333C39.2263 61.8333 38.7852 61.3922 38.7852 60.852V54.0186C38.7852 53.4784 39.2263 53.0373 39.7665 53.0373C40.3067 53.0373 40.7478 53.4784 40.7478 54.0186V60.852C40.7478 61.3922 40.3067 61.8333 39.7665 61.8333Z" fill="currentColor"/>
<path d="M27.0452 42.4677C27.0452 42.4677 27.0182 42.4677 27.0002 42.4677C24.0021 42.3416 22.0575 42.0355 20.9951 40.8561C19.9507 39.6947 20.0498 38.0021 20.1668 36.0304C20.2659 34.3739 20.626 32.9604 21.2742 31.7179C23.0928 28.2157 26.7751 26.7662 29.5481 26.163C30.0792 26.055 30.6014 26.3881 30.7095 26.9103C30.8265 27.4415 30.4844 27.9637 29.9622 28.0717C27.6034 28.5849 24.4793 29.7823 23.0118 32.6183C22.4986 33.6086 22.2015 34.77 22.1205 36.1475C22.0125 37.9211 21.9854 39.0285 22.4446 39.5416C22.9488 40.0998 24.3353 40.3879 27.0812 40.505C27.6214 40.532 28.0445 40.9821 28.0175 41.5223C27.9995 42.0445 27.5584 42.4587 27.0452 42.4587V42.4677Z" fill="currentColor"/>
<path d="M33.4729 42.5577C32.3385 42.5577 31.3032 42.5577 30.3669 42.5487C29.8267 42.5487 29.3945 42.0985 29.3945 41.5583C29.3945 41.0181 29.8357 40.586 30.3759 40.586C31.3122 40.586 32.3385 40.595 33.4639 40.595C39.8741 40.595 43.5384 40.55 44.4657 39.5596C44.9429 39.0555 44.9159 37.9301 44.8078 36.1475C44.7268 34.77 44.4387 33.6176 43.9165 32.6182C43.1513 31.1507 41.8638 29.9713 40.0722 29.116C39.586 28.882 39.379 28.2968 39.6131 27.8106C39.8471 27.3244 40.4323 27.1174 40.9185 27.3514C43.0973 28.3958 44.6908 29.8633 45.6541 31.7179C46.3024 32.9604 46.6625 34.3739 46.7615 36.0304C46.8786 38.0201 46.9866 39.7397 45.8882 40.9011C44.4567 42.4226 41.6748 42.5487 33.4639 42.5487L33.4729 42.5577Z" fill="currentColor"/>
<path d="M33.4736 30.3494C30.7547 30.3494 28.5039 28.1617 28.0087 25.0196C27.9187 24.4524 27.8287 23.8582 27.7926 23.282C27.6666 21.1753 28.3238 19.1856 29.6023 17.8261C30.6286 16.7368 32.0061 16.1335 33.4736 16.1335C34.9411 16.1335 36.3186 16.7368 37.3449 17.8261C38.6234 19.1856 39.2806 21.1753 39.1546 23.282C39.1185 23.8582 39.0285 24.4524 38.9385 25.0196C38.4433 28.1527 36.1925 30.3494 33.4736 30.3494ZM33.4736 18.0962C32.5373 18.0962 31.691 18.4653 31.0338 19.1766C30.1244 20.1399 29.6563 21.5984 29.7463 23.174C29.7733 23.6601 29.8544 24.2003 29.9354 24.7225C30.2865 26.9193 31.7 28.3958 33.4736 28.3958C35.2472 28.3958 36.6607 26.9193 37.0118 24.7225C37.0928 24.2093 37.1739 23.6601 37.2009 23.174C37.2999 21.5984 36.8318 20.1399 35.9134 19.1766C35.2472 18.4744 34.4009 18.0962 33.4646 18.0962H33.4736Z" fill="currentColor"/>
<path d="M27.0448 42.4676C26.5046 42.4676 26.0635 42.0265 26.0635 41.4863V36.6336C26.0635 36.0934 26.5046 35.6523 27.0448 35.6523C27.585 35.6523 28.0262 36.0934 28.0262 36.6336V41.4863C28.0262 42.0265 27.585 42.4676 27.0448 42.4676Z" fill="currentColor"/>
<path d="M39.9013 42.4676C39.3611 42.4676 38.9199 42.0265 38.9199 41.4863V36.6336C38.9199 36.0934 39.3611 35.6523 39.9013 35.6523C40.4414 35.6523 40.8826 36.0934 40.8826 36.6336V41.4863C40.8826 42.0265 40.4414 42.4676 39.9013 42.4676Z" fill="currentColor"/>
<path d="M33.2661 13.0095C29.6828 13.0095 26.7568 10.0925 26.7568 6.50021C26.7568 2.90797 29.6738 -0.0090332 33.2661 -0.0090332C36.8583 -0.0090332 39.7753 2.90797 39.7753 6.50021C39.7753 10.0925 36.8583 13.0095 33.2661 13.0095ZM33.2661 1.95364C30.7542 1.95364 28.7195 3.99735 28.7195 6.50021C28.7195 9.00307 30.7632 11.0468 33.2661 11.0468C35.7689 11.0468 37.8127 9.00307 37.8127 6.50021C37.8127 3.99735 35.7689 1.95364 33.2661 1.95364Z" fill="currentColor"/>
<path d="M33.2663 7.48154C33.2033 7.48154 33.1402 7.47253 33.0772 7.46353C33.0142 7.45453 32.9512 7.43652 32.8972 7.40951C32.8341 7.3825 32.7801 7.35549 32.7261 7.31948C32.6721 7.28347 32.6271 7.23845 32.582 7.19344C32.537 7.14842 32.492 7.1034 32.456 7.04939C32.42 6.99537 32.393 6.94135 32.366 6.87833C32.339 6.82431 32.321 6.76129 32.312 6.69827C32.312 6.63524 32.2939 6.57222 32.2939 6.5092C32.2939 6.24811 32.393 5.99602 32.582 5.81596C32.6271 5.77095 32.6721 5.72593 32.7261 5.68992C32.7801 5.65391 32.8341 5.6269 32.8972 5.59989C32.9512 5.57288 33.0142 5.55487 33.0772 5.54587C33.4013 5.48285 33.7344 5.58188 33.9595 5.81596C34.1486 5.99602 34.2476 6.24811 34.2476 6.5092C34.2476 6.77029 34.1486 7.01337 33.9595 7.19344C33.7795 7.3825 33.5274 7.48154 33.2663 7.48154Z" fill="currentColor"/>
<path d="M66.7216 59.7626C53.5411 59.7626 49.1116 59.5826 47.0859 57.4038C45.6454 55.8643 45.7984 53.5595 45.9785 50.8856C46.1315 48.5628 46.6987 46.5911 47.7071 44.8535C50.1919 40.595 54.9816 38.5783 58.5738 37.642C59.096 37.4979 59.6362 37.8131 59.7712 38.3352C59.9063 38.8574 59.6002 39.3976 59.078 39.5326C55.8459 40.3789 51.5514 42.1706 49.4087 45.8438C48.5534 47.3023 48.0762 48.9949 47.9411 51.0116C47.7701 53.5865 47.7251 55.2071 48.5264 56.0623C50.0749 57.7189 55.8369 57.7999 66.7396 57.7999C77.6424 57.7999 83.4044 57.7189 84.9619 56.0623C85.7632 55.2071 85.7182 53.5865 85.5381 51.0116C85.4031 48.9949 84.9259 47.3113 84.0706 45.8438C81.9189 42.1706 77.6244 40.3879 74.4013 39.5326C73.8791 39.3976 73.564 38.8574 73.708 38.3352C73.8431 37.8131 74.3833 37.4979 74.9054 37.642C78.4887 38.5873 83.2873 40.604 85.7722 44.8535C86.7895 46.5911 87.3567 48.5628 87.5098 50.8856C87.6899 53.5595 87.8429 55.8643 86.4114 57.4038C84.3767 59.5736 79.9472 59.7626 66.7666 59.7626H66.7216Z" fill="currentColor"/>
<path d="M66.722 39.3886C62.6166 39.3886 59.3485 36.1835 58.5922 31.4029C58.4482 30.5205 58.3131 29.5842 58.2591 28.7019C58.061 25.5058 59.0604 22.4988 60.987 20.4461C62.5356 18.7985 64.5163 17.9342 66.722 17.9342C68.9278 17.9342 70.9085 18.8075 72.457 20.4461C74.3837 22.4898 75.374 25.4968 75.1849 28.7019C75.1309 29.5932 74.9869 30.5656 74.8518 31.4029C74.0956 36.1835 70.8274 39.3886 66.722 39.3886ZM66.722 19.8879C65.0745 19.8879 63.5799 20.5451 62.4095 21.7875C60.852 23.4441 60.0507 25.92 60.2128 28.5759C60.2578 29.3772 60.3928 30.2595 60.5279 31.0967C61.1311 34.8871 63.616 37.4349 66.722 37.4349C69.8281 37.4349 72.3129 34.8871 72.9162 31.0967C73.0422 30.3045 73.1772 29.3862 73.2313 28.5759C73.3933 25.911 72.592 23.4351 71.0345 21.7875C69.8641 20.5451 68.3786 19.8879 66.722 19.8879Z" fill="currentColor"/>
<path d="M56.413 59.6456C55.8728 59.6456 55.4316 59.2045 55.4316 58.6643V51.7319C55.4316 51.1917 55.8728 50.7505 56.413 50.7505C56.9532 50.7505 57.3943 51.1917 57.3943 51.7319V58.6643C57.3943 59.2045 56.9532 59.6456 56.413 59.6456Z" fill="currentColor"/>
<path d="M77.039 59.6456C76.4988 59.6456 76.0576 59.2045 76.0576 58.6643V51.7319C76.0576 51.1917 76.4988 50.7505 77.039 50.7505C77.5791 50.7505 78.0203 51.1917 78.0203 51.7319V58.6643C78.0203 59.2045 77.5791 59.6456 77.039 59.6456Z" fill="currentColor"/>
</g>
<defs>
<clipPath id="clip0_5127_828">
<rect width="87.5912" height="61.8333" fill="white"/>
</clipPath>
</defs>
</svg>
