<svg width="106" height="106" viewBox="0 0 106 106" fill="none" xmlns="http://www.w3.org/2000/svg">
<g clip-path="url(#clip0_5115_1642)">
<path d="M52.9155 58.5395C52.7928 58.5395 52.6778 58.5395 52.5552 58.5319C50.6615 58.4399 48.9134 57.6119 47.6407 56.2012C46.368 54.7905 45.7164 52.9735 45.8084 51.0798C45.9004 49.1861 46.7284 47.438 48.1391 46.1653C49.5498 44.8926 51.3668 44.241 53.2605 44.333C55.1542 44.425 56.9022 45.253 58.1749 46.6637C59.2329 47.8367 59.8616 49.2781 59.992 50.8497C60.0303 51.3481 59.6623 51.7851 59.1639 51.8234C58.6656 51.8618 58.2286 51.4938 58.1903 50.9954C58.0982 49.8224 57.6229 48.749 56.8332 47.875C55.8825 46.8247 54.5792 46.2113 53.1685 46.1347C51.7578 46.0657 50.4008 46.5487 49.3504 47.4994C48.3001 48.45 47.6867 49.7534 47.6101 51.1641C47.5411 52.5748 48.0241 53.9395 48.9748 54.9822C49.9254 56.0325 51.2288 56.6458 52.6395 56.7225C54.0578 56.7915 55.4149 56.3085 56.4576 55.3578C56.8256 55.0205 57.4006 55.0512 57.7302 55.4192C58.0676 55.7872 58.0369 56.3622 57.6689 56.6918C56.3502 57.8879 54.6712 58.5319 52.9078 58.5319L52.9155 58.5395Z" fill="currentColor"/>
<path d="M76.9669 83.9166C76.7292 83.9166 76.4992 83.8246 76.3305 83.6483L70.2124 77.5302C70.0208 77.3385 69.9211 77.0701 69.9518 76.7941L70.6418 70.3387C70.6878 69.917 71.0174 69.5797 71.4468 69.5337L77.9022 68.8437C78.1782 68.813 78.4466 68.9127 78.6383 69.1043L84.7564 75.2224C85.0017 75.4678 85.086 75.8358 84.971 76.1655C84.856 76.4951 84.5647 76.7251 84.212 76.7635L78.4773 77.3768L77.8639 83.1116C77.8256 83.4566 77.5956 83.7479 77.2659 83.8706C77.1662 83.9089 77.0666 83.9243 76.9669 83.9243V83.9166ZM71.7918 76.5641L76.2692 81.0416L76.7599 76.4645C76.8059 76.0428 77.1356 75.7055 77.5649 75.6595L82.142 75.1688L77.6646 70.6914L72.3591 71.2587L71.7918 76.5641Z" fill="currentColor"/>
<path d="M71.5386 71.3431C71.3086 71.3431 71.0786 71.2511 70.9023 71.0747L52.3563 52.5287C52.0036 52.1761 52.0036 51.6011 52.3563 51.2484C52.709 50.8957 53.284 50.8957 53.6367 51.2484L72.1826 69.7944C72.5353 70.1471 72.5353 70.7221 72.1826 71.0747C72.0063 71.2511 71.7763 71.3431 71.5463 71.3431H71.5386Z" fill="currentColor"/>
<path d="M52.9918 66.8657C44.7347 66.8657 38.0186 60.1496 38.0186 51.8924C38.0186 43.6353 44.7347 36.9192 52.9918 36.9192C61.249 36.9192 67.9651 43.6353 67.9651 51.8924C67.9651 54.2385 67.4361 56.4925 66.3934 58.5779C66.171 59.0226 65.6267 59.2066 65.182 58.9842C64.7373 58.7619 64.5533 58.2176 64.7757 57.7729C65.6957 55.9405 66.1557 53.9625 66.1557 51.8924C66.1557 44.632 60.2523 38.7286 52.9918 38.7286C45.7314 38.7286 39.8279 44.632 39.8279 51.8924C39.8279 59.1529 45.7314 65.0563 52.9918 65.0563C56.5109 65.0563 59.8153 63.684 62.2993 61.1999C62.652 60.8473 63.227 60.8473 63.5797 61.1999C63.9323 61.5526 63.9323 62.1276 63.5797 62.4803C60.7506 65.3094 56.9939 66.8657 52.9918 66.8657Z" fill="currentColor"/>
<path d="M34.4999 64.8876C34.2085 64.8876 33.9172 64.742 33.7409 64.4813C31.3105 60.7552 30.0225 56.4158 30.0225 51.9461C30.0225 39.2805 40.3266 28.9687 52.9999 28.9687C65.6731 28.9687 75.9773 39.2729 75.9773 51.9461C75.9773 52.4444 75.5709 52.8508 75.0726 52.8508C74.5742 52.8508 74.1679 52.4444 74.1679 51.9461C74.1679 40.2696 64.6687 30.7781 52.9999 30.7781C41.331 30.7781 31.8318 40.2772 31.8318 51.9461C31.8318 56.0632 33.0125 60.0576 35.2589 63.4923C35.5349 63.914 35.4122 64.4736 34.9982 64.742C34.8449 64.8416 34.6762 64.8876 34.5075 64.8876H34.4999Z" fill="currentColor"/>
<path d="M52.9997 74.9235C46.8663 74.9235 41.0932 72.5314 36.7538 68.192C36.4011 67.8393 36.4011 67.2643 36.7538 66.9117C37.1064 66.559 37.6814 66.559 38.0341 66.9117C42.0362 70.9137 47.3493 73.1141 52.9997 73.1141C57.1014 73.1141 61.0729 71.9411 64.4922 69.7254C64.9139 69.457 65.4736 69.572 65.7419 69.9937C66.0103 70.4154 65.8953 70.9751 65.4736 71.2434C61.7552 73.6508 57.4388 74.9235 52.992 74.9235H52.9997Z" fill="currentColor"/>
<path d="M68.6323 68.4374C68.4023 68.4374 68.1723 68.353 67.9959 68.1767C67.6433 67.824 67.6433 67.249 67.9959 66.8963C70.9323 63.9523 72.918 60.2569 73.7461 56.2165C73.8457 55.7258 74.3211 55.4191 74.8117 55.5111C75.3024 55.6108 75.6168 56.0862 75.5171 56.5768C74.6201 60.9699 72.458 64.9796 69.2763 68.169C69.1 68.3454 68.87 68.4374 68.64 68.4374H68.6323Z" fill="currentColor"/>
<path d="M14.2746 56.5615C11.7292 56.5615 9.65918 54.4915 9.65918 51.9461C9.65918 49.4007 11.7292 47.3307 14.2746 47.3307C16.82 47.3307 18.89 49.4007 18.89 51.9461C18.89 54.4915 16.82 56.5615 14.2746 56.5615ZM14.2746 49.1324C12.7259 49.1324 11.4685 50.3897 11.4685 51.9384C11.4685 53.4871 12.7259 54.7445 14.2746 54.7445C15.8233 54.7445 17.0806 53.4871 17.0806 51.9384C17.0806 50.3897 15.8233 49.1324 14.2746 49.1324Z" fill="currentColor"/>
<path d="M20.8371 35.7308C18.2917 35.7308 16.2217 33.6608 16.2217 31.1154C16.2217 28.57 18.2917 26.5 20.8371 26.5C23.3825 26.5 25.4525 28.57 25.4525 31.1154C25.4525 33.6608 23.3825 35.7308 20.8371 35.7308ZM20.8371 28.3094C19.2884 28.3094 18.031 29.5667 18.031 31.1154C18.031 32.6641 19.2884 33.9215 20.8371 33.9215C22.3858 33.9215 23.6431 32.6641 23.6431 31.1154C23.6431 29.5667 22.3858 28.3094 20.8371 28.3094Z" fill="currentColor"/>
<path d="M30.9265 52.8508H17.9926C17.4942 52.8508 17.0879 52.4445 17.0879 51.9461C17.0879 51.4478 17.4942 51.0414 17.9926 51.0414H30.9341C31.4325 51.0414 31.8388 51.4478 31.8388 51.9461C31.8388 52.4445 31.4325 52.8508 30.9341 52.8508H30.9265Z" fill="currentColor"/>
<path d="M34.9446 34.9565C34.7146 34.9565 34.4846 34.8645 34.3082 34.6882L32.8822 33.2621C32.0848 32.4648 31.0192 32.0201 29.8845 32.0201H24.556C24.0577 32.0201 23.6514 31.6138 23.6514 31.1154C23.6514 30.6171 24.0577 30.2108 24.556 30.2108H29.8845C31.5022 30.2108 33.0202 30.8394 34.1549 31.9818L35.5809 33.4078C35.9336 33.7605 35.9336 34.3355 35.5809 34.6882C35.4046 34.8645 35.1746 34.9565 34.9446 34.9565Z" fill="currentColor"/>
<path d="M20.8371 77.3922C18.2917 77.3922 16.2217 75.3222 16.2217 72.7768C16.2217 70.2314 18.2917 68.1614 20.8371 68.1614C23.3825 68.1614 25.4525 70.2314 25.4525 72.7768C25.4525 75.3222 23.3825 77.3922 20.8371 77.3922ZM20.8371 69.9631C19.2884 69.9631 18.031 71.2204 18.031 72.7691C18.031 74.3178 19.2884 75.5752 20.8371 75.5752C22.3858 75.5752 23.6431 74.3178 23.6431 72.7691C23.6431 71.2204 22.3858 69.9631 20.8371 69.9631Z" fill="currentColor"/>
<path d="M29.8767 73.6738H24.5482C24.0499 73.6738 23.6436 73.2675 23.6436 72.7691C23.6436 72.2708 24.0499 71.8644 24.5482 71.8644H29.8767C31.0113 71.8644 32.0694 71.4274 32.8744 70.6224L38.5938 64.903C38.9465 64.5503 39.5215 64.5503 39.8742 64.903C40.2268 65.2557 40.2268 65.8307 39.8742 66.1833L34.1547 71.9028C33.0124 73.0451 31.4944 73.6738 29.8843 73.6738H29.8767Z" fill="currentColor"/>
<path d="M91.7248 56.5615C89.1794 56.5615 87.1094 54.4915 87.1094 51.9461C87.1094 49.4007 89.1794 47.3307 91.7248 47.3307C94.2702 47.3307 96.3402 49.4007 96.3402 51.9461C96.3402 54.4915 94.2702 56.5615 91.7248 56.5615ZM91.7248 49.1324C90.1761 49.1324 88.9187 50.3897 88.9187 51.9384C88.9187 53.4871 90.1761 54.7445 91.7248 54.7445C93.2735 54.7445 94.5308 53.4871 94.5308 51.9384C94.5308 50.3897 93.2735 49.1324 91.7248 49.1324Z" fill="currentColor"/>
<path d="M85.1701 35.7308C82.6247 35.7308 80.5547 33.6608 80.5547 31.1154C80.5547 28.57 82.6247 26.5 85.1701 26.5C87.7155 26.5 89.7855 28.57 89.7855 31.1154C89.7855 33.6608 87.7155 35.7308 85.1701 35.7308ZM85.1701 28.3094C83.6214 28.3094 82.3641 29.5667 82.3641 31.1154C82.3641 32.6641 83.6214 33.9215 85.1701 33.9215C86.7188 33.9215 87.9762 32.6641 87.9762 31.1154C87.9762 29.5667 86.7188 28.3094 85.1701 28.3094Z" fill="currentColor"/>
<path d="M88.0141 52.8508H71.6762C71.1778 52.8508 70.7715 52.4445 70.7715 51.9461C70.7715 51.4478 71.1778 51.0414 71.6762 51.0414H88.0141C88.5125 51.0414 88.9188 51.4478 88.9188 51.9461C88.9188 52.4445 88.5125 52.8508 88.0141 52.8508Z" fill="currentColor"/>
<path d="M68.6938 37.3255C68.4638 37.3255 68.2338 37.2335 68.0575 37.0572C67.7048 36.7045 67.7048 36.1295 68.0575 35.7769L71.8525 31.9818C72.9949 30.8394 74.5129 30.2108 76.1229 30.2108H81.4514C81.9497 30.2108 82.3561 30.6171 82.3561 31.1154C82.3561 31.6138 81.9497 32.0201 81.4514 32.0201H76.1229C74.9883 32.0201 73.9302 32.4571 73.1252 33.2621L69.3302 37.0572C69.1538 37.2335 68.9238 37.3255 68.6938 37.3255Z" fill="currentColor"/>
<path d="M27.4619 44.77C27.3852 44.77 27.3009 44.7623 27.2166 44.7393C26.7336 44.6013 26.4576 44.103 26.5879 43.6277C27.2932 41.0899 28.5966 38.7132 30.3523 36.7582C30.682 36.3825 31.257 36.3519 31.625 36.6892C31.993 37.0189 32.0313 37.5939 31.694 37.9619C30.1223 39.7176 28.9569 41.8413 28.3206 44.1107C28.2056 44.5093 27.8452 44.77 27.4542 44.77H27.4619Z" fill="currentColor"/>
<path d="M26.8637 48.7414C26.8637 48.7414 26.8407 48.7414 26.8253 48.7414C26.3423 48.7184 25.959 48.3274 25.959 47.8367C25.959 47.8137 25.959 47.7831 25.959 47.7601C25.9973 47.2771 26.4037 46.9167 26.8943 46.9321C27.3773 46.9551 27.7607 47.3461 27.7607 47.8367C27.7607 47.8597 27.7607 47.8904 27.7607 47.9134C27.7223 48.3811 27.3313 48.7414 26.8637 48.7414Z" fill="currentColor"/>
</g>
<defs>
<clipPath id="clip0_5115_1642">
<rect width="86.6808" height="57.4167" fill="white" transform="translate(9.65918 26.5)"/>
</clipPath>
</defs>
</svg>
