<svg width="24" height="24" viewBox="0 0 24 24" fill="none" xmlns="http://www.w3.org/2000/svg">
<path d="M14.6895 12.8058C16.1836 11.8752 17.2018 10.2068 17.2018 8.30013C17.2018 5.38335 14.8665 3 12 3C9.13346 3 6.78711 5.37201 6.78711 8.30013C6.78711 10.2182 7.79427 11.8752 9.29948 12.8058C5.9349 13.9521 3.5 17.1866 3.5 21H4.71745C4.71745 16.9142 7.98242 13.6003 12 13.6003C16.0176 13.6003 19.2826 16.9256 19.2826 21H20.5C20.5 17.1866 18.0651 13.9521 14.7005 12.8058H14.6895ZM8.00456 8.30013C8.00456 6.06431 9.79753 4.24842 12 4.24842C14.2025 4.24842 15.9954 6.06431 15.9954 8.30013C15.9954 10.5359 14.2025 12.3518 12 12.3518C9.79753 12.3518 8.00456 10.5359 8.00456 8.30013Z" fill="currentColor"/>
</svg>
