<svg width="90" height="76" viewBox="0 0 90 76" fill="none" xmlns="http://www.w3.org/2000/svg">
<g clip-path="url(#clip0_5127_801)">
<path d="M61.3892 30.8897H55.2152C54.63 30.8897 54.1521 30.4118 54.1521 29.8266C54.1521 29.2413 54.63 28.7634 55.2152 28.7634H61.3892C63.8764 28.7634 65.8954 26.7444 65.8954 24.2572V6.63246C65.8954 4.14529 63.8764 2.12629 61.3892 2.12629H27.2418C24.7547 2.12629 22.7357 4.14529 22.7357 6.63246V24.267C22.7357 26.7542 24.7547 28.7732 27.2418 28.7732H33.806C34.3912 28.7732 34.8692 29.2511 34.8692 29.8363C34.8692 30.4215 34.3912 30.8995 33.806 30.8995H27.2418C23.5842 30.8995 20.6094 27.9246 20.6094 24.267V6.63246C20.6094 2.97485 23.5842 0 27.2418 0H61.3892C65.0468 0 68.0217 2.97485 68.0217 6.63246V24.267C68.0217 27.9246 65.0468 30.8995 61.3892 30.8995V30.8897Z" fill="currentColor"/>
<path d="M27.154 12.4163C26.5687 12.4163 26.0908 11.9384 26.0908 11.3532V7.96869C26.0908 6.2228 27.5148 4.79877 29.2607 4.79877H31.9332C32.5185 4.79877 32.9964 5.27669 32.9964 5.86191C32.9964 6.44713 32.5185 6.92506 31.9332 6.92506H29.2607C28.6853 6.92506 28.2171 7.39323 28.2171 7.96869V11.3532C28.2171 11.9384 27.7392 12.4163 27.154 12.4163Z" fill="currentColor"/>
<path d="M27.154 17.5468C26.5687 17.5468 26.0908 17.0688 26.0908 16.4836V16.3471C26.0908 15.7619 26.5687 15.2839 27.154 15.2839C27.7392 15.2839 28.2171 15.7619 28.2171 16.3471V16.4836C28.2171 17.0688 27.7392 17.5468 27.154 17.5468Z" fill="currentColor"/>
<path d="M44.7309 75.0834C31.6806 75.0834 26.9208 74.8785 24.7262 72.5474C23.0974 70.8113 23.2534 68.0998 23.4388 64.9493C23.5948 62.2964 24.1703 60.053 25.1944 58.0828C27.7303 53.1962 32.6559 50.8651 36.3428 49.7727C36.9085 49.6069 37.4937 49.9288 37.6595 50.4847C37.8253 51.0407 37.5035 51.6357 36.9475 51.8015C33.6605 52.7768 29.2812 54.8251 27.0769 59.0484C26.199 60.7455 25.7016 62.7158 25.5553 65.0664C25.37 68.1485 25.331 70.0895 26.2673 71.0844C27.9449 72.8693 33.7483 72.9473 44.7309 72.9473C55.7135 72.9473 61.5169 72.8595 63.1945 71.0746C64.1308 70.0797 64.0918 68.1388 63.9065 65.0566C63.77 62.7158 63.2725 60.7455 62.3849 59.0386C60.1904 54.8056 55.8013 52.7573 52.5143 51.7917C51.9486 51.6259 51.6365 51.0309 51.8023 50.475C51.9681 49.9093 52.5533 49.5971 53.119 49.763C56.7961 50.8554 61.7217 53.1767 64.2674 58.073C65.3013 60.053 65.867 62.2964 66.023 64.9396C66.2084 68.0803 66.3742 70.8015 64.7453 72.5279C62.5508 74.859 57.791 75.0638 44.7309 75.0638V75.0834Z" fill="currentColor"/>
<path d="M44.7309 50.2702C40.371 50.2702 36.8987 46.8564 36.0892 41.7845C35.9429 40.8969 35.7966 39.863 35.738 38.9169C35.5332 35.5227 36.5866 32.3235 38.6349 30.1484C40.2832 28.4025 42.39 27.476 44.7309 27.476C47.0717 27.476 49.1883 28.4025 50.8269 30.1484C52.8751 32.3235 53.9285 35.5129 53.7237 38.9169C53.6652 39.8728 53.5091 40.8969 53.3726 41.7845C52.563 46.8564 49.0907 50.2702 44.7309 50.2702ZM44.7309 29.5925C42.985 29.5925 41.4146 30.285 40.1759 31.6017C38.5276 33.3476 37.679 35.9714 37.8546 38.7901C37.9033 39.6485 38.0497 40.6141 38.1862 41.4529C38.8202 45.4616 41.4537 48.1536 44.7309 48.1536C48.0081 48.1536 50.6416 45.4616 51.2756 41.4529C51.4121 40.6141 51.5584 39.6485 51.6072 38.7901C51.773 35.9714 50.9342 33.3574 49.2858 31.6017C48.0471 30.285 46.4768 29.5925 44.7309 29.5925Z" fill="currentColor"/>
<path d="M34.1872 74.9468C33.602 74.9468 33.124 74.4689 33.124 73.8836V65.9052C33.124 65.32 33.602 64.842 34.1872 64.842C34.7724 64.842 35.2503 65.32 35.2503 65.9052V73.8836C35.2503 74.4689 34.7724 74.9468 34.1872 74.9468Z" fill="currentColor"/>
<path d="M55.2838 74.9468C54.6986 74.9468 54.2207 74.4689 54.2207 73.8836V65.9052C54.2207 65.32 54.6986 64.842 55.2838 64.842C55.8691 64.842 56.347 65.32 56.347 65.9052V73.8836C56.347 74.4689 55.8691 74.9468 55.2838 74.9468Z" fill="currentColor"/>
<path d="M48.6813 40.3605C48.0083 40.3605 47.3451 40.2629 46.7111 40.0776C45.0627 39.5899 43.8825 38.556 43.151 37.727C42.3805 38.5756 41.171 39.5802 39.669 39.746C38.7716 39.8533 37.4257 39.6777 36.0406 38.3025C35.631 37.883 35.631 37.2198 36.0406 36.8004C36.46 36.3907 37.1233 36.3907 37.5427 36.8004C38.1767 37.4344 38.7912 37.7075 39.4251 37.6392C40.7126 37.4929 41.9221 35.9713 42.2829 35.3959C42.4878 35.074 42.8292 34.8887 43.2193 34.8984C43.5997 34.9082 43.9411 35.1228 44.1166 35.4544C44.1166 35.4739 45.2188 37.4344 47.3451 38.0489C48.7886 38.4683 50.4175 38.1854 52.1926 37.21C52.6998 36.9272 53.3533 37.1125 53.6362 37.6295C53.919 38.1464 53.7337 38.7901 53.2168 39.073C51.6464 39.9411 50.1346 40.3702 48.6911 40.3702L48.6813 40.3605Z" fill="currentColor"/>
<path d="M17.2254 72.8693C7.38396 72.8498 3.18991 72.6352 1.26844 70.5967C-0.204353 69.0264 -0.0580483 66.6075 0.107763 63.8082C0.244314 61.4576 0.761256 59.4581 1.66834 57.7024C3.32646 54.5032 6.43786 52.0551 10.6417 50.6115C11.1976 50.4262 11.8023 50.7188 11.9877 51.2748C12.173 51.8307 11.8804 52.4355 11.3244 52.6208C8.75922 53.4986 5.31619 55.264 3.54104 58.6778C2.7705 60.1603 2.34134 61.877 2.21454 63.9252C2.05849 66.6075 2.01947 68.2948 2.80951 69.1337C4.08724 70.4894 8.10573 70.7235 17.2254 70.743C17.8106 70.743 18.2885 71.2209 18.2787 71.8061C18.2787 72.3914 17.8008 72.8595 17.2156 72.8595L17.2254 72.8693Z" fill="currentColor"/>
<path d="M18.9908 72.879H17.2254C16.6402 72.879 16.1623 72.4011 16.172 71.8159C16.172 71.2307 16.6499 70.7625 17.2352 70.7625H19.0006C19.5858 70.7625 20.0637 71.2404 20.0637 71.8257C20.0637 72.4109 19.5858 72.8888 19.0006 72.8888L18.9908 72.879Z" fill="currentColor"/>
<path d="M19.8104 51.86C16.1626 51.86 13.256 49.0217 12.583 44.7886C12.4659 44.0278 12.3391 43.2085 12.2904 42.438C12.1246 39.6192 13.0024 36.9662 14.6995 35.1618C16.0553 33.7183 17.8694 32.9282 19.8007 32.9282C21.7319 32.9282 23.5461 33.7183 24.9018 35.1618C26.5989 36.9662 27.4865 39.6192 27.3109 42.438C27.2622 43.2183 27.1354 44.0669 27.0183 44.7886C26.3453 49.0217 23.4485 51.86 19.7909 51.86H19.8104ZM19.8104 35.0448C18.4449 35.0448 17.216 35.591 16.2503 36.6151C14.9434 38.0001 14.2801 40.0776 14.4167 42.3112C14.4557 42.994 14.5727 43.745 14.6898 44.457C15.1872 47.6172 17.255 49.7435 19.8202 49.7435C22.3854 49.7435 24.4531 47.6172 24.9506 44.457C25.0579 43.7742 25.1749 42.994 25.2139 42.3112C25.3505 40.0776 24.6775 38.0001 23.3802 36.6151C22.4146 35.591 21.1857 35.0448 19.8202 35.0448H19.8104Z" fill="currentColor"/>
<path d="M9.69596 72.7522C9.11074 72.7522 8.63281 72.2743 8.63281 71.6891V64.6567C8.63281 64.0715 9.11074 63.5936 9.69596 63.5936C10.2812 63.5936 10.7591 64.0715 10.7591 64.6567V71.6891C10.7591 72.2743 10.2812 72.7522 9.69596 72.7522Z" fill="currentColor"/>
<path d="M23.0288 43.8035C22.4631 43.8035 21.9071 43.7254 21.3609 43.5596C20.0832 43.1792 19.1371 42.4185 18.5226 41.7455C17.8691 42.4185 16.9035 43.1597 15.7136 43.2963C14.943 43.3841 13.7823 43.2475 12.6022 42.0673C12.1925 41.6479 12.1925 40.9847 12.6022 40.5653C13.0216 40.1556 13.6848 40.1556 14.1042 40.5653C14.8065 41.2675 15.3039 41.209 15.4697 41.1895C16.4353 41.0725 17.3814 39.8728 17.6448 39.4631C17.8399 39.1413 18.2105 38.9559 18.5811 38.9559C18.9615 38.9657 19.3029 39.1803 19.4785 39.5119C19.4785 39.5119 20.0247 40.4873 21.0781 41.1212C22.4143 41.9308 23.9944 41.8332 25.7793 40.8579C26.2865 40.575 26.94 40.7604 27.2228 41.2773C27.5057 41.7942 27.3204 42.438 26.8034 42.7208C25.4964 43.4426 24.2382 43.8035 23.0288 43.8035Z" fill="currentColor"/>
<path d="M72.2458 72.8693C71.6605 72.8693 71.1826 72.4011 71.1826 71.8159C71.1826 71.2307 71.6508 70.7528 72.236 70.7528C81.3556 70.7333 85.3741 70.5089 86.6518 69.1434C87.4419 68.3046 87.4029 66.6172 87.2468 63.935C87.1298 61.8867 86.6909 60.1701 85.9203 58.6875C84.1452 55.2738 80.7119 53.5084 78.1369 52.6305C77.581 52.4452 77.2884 51.8405 77.4737 51.2846C77.659 50.7286 78.2637 50.436 78.8197 50.6213C83.0333 52.0551 86.1349 54.513 87.793 57.7122C88.7001 59.4678 89.2171 61.4576 89.3536 63.8179C89.5194 66.6172 89.6657 69.0361 88.1929 70.6065C86.2715 72.645 82.0774 72.8596 72.236 72.8791L72.2458 72.8693Z" fill="currentColor"/>
<path d="M70.4801 72.879C69.8949 72.879 69.417 72.4011 69.417 71.8159C69.417 71.2307 69.8949 70.7527 70.4801 70.7527H72.2455C72.8308 70.7527 73.3087 71.2307 73.3087 71.8061C73.3087 72.3914 72.8405 72.8693 72.2553 72.8693H70.4899L70.4801 72.879Z" fill="currentColor"/>
<path d="M69.6611 51.86C66.0132 51.86 63.1066 49.0217 62.4336 44.7886C62.3166 44.0571 62.1898 43.2183 62.141 42.438C61.9655 39.6192 62.853 36.9662 64.5502 35.1618C65.9059 33.7183 67.7201 32.9282 69.6513 32.9282C71.5825 32.9282 73.3967 33.7183 74.7525 35.1618C76.4496 36.9662 77.3372 39.6192 77.1616 42.438C77.1128 43.2183 76.9958 44.0278 76.869 44.7886C76.196 49.0217 73.2992 51.86 69.6416 51.86H69.6611ZM69.6611 35.0448C68.2956 35.0448 67.0666 35.591 66.101 36.6151C64.794 38.0001 64.1308 40.0776 64.2673 42.3112C64.3063 42.994 64.4234 43.784 64.5307 44.457C65.0281 47.6172 67.0959 49.7435 69.6611 49.7435C72.2263 49.7435 74.2843 47.6172 74.7915 44.457C74.9085 43.745 75.0158 42.994 75.0646 42.3112C75.2011 40.0776 74.5281 38.0001 73.2309 36.6151C72.2653 35.591 71.0363 35.0448 69.6708 35.0448H69.6611Z" fill="currentColor"/>
<path d="M79.7858 72.7522C79.2006 72.7522 78.7227 72.2743 78.7227 71.6891V64.6567C78.7227 64.0715 79.2006 63.5936 79.7858 63.5936C80.371 63.5936 80.8489 64.0715 80.8489 64.6567V71.6891C80.8489 72.2743 80.371 72.7522 79.7858 72.7522Z" fill="currentColor"/>
<path d="M72.8598 43.8035C72.2941 43.8035 71.7382 43.7255 71.2017 43.5597C69.924 43.1793 68.9779 42.4185 68.3537 41.7455C67.7002 42.4185 66.7346 43.1598 65.5446 43.2963C64.7741 43.3841 63.6134 43.2476 62.4332 42.0674C62.0236 41.648 62.0236 40.9847 62.4332 40.5653C62.8526 40.1557 63.5159 40.1557 63.9353 40.5653C64.6375 41.2676 65.135 41.2091 65.3008 41.1896C66.2566 41.0823 67.2222 39.8728 67.4758 39.4534C67.6807 39.1316 68.022 38.9365 68.4122 38.956C68.7926 38.9657 69.1339 39.1803 69.3095 39.5119C69.3095 39.5119 69.8557 40.4873 70.9091 41.1213C72.2453 41.9308 73.8254 41.8333 75.6103 40.8579C76.1175 40.5751 76.771 40.7604 77.0539 41.2773C77.3367 41.7943 77.1514 42.438 76.6345 42.7209C75.3275 43.4427 74.0693 43.8035 72.8598 43.8035Z" fill="currentColor"/>
</g>
<defs>
<clipPath id="clip0_5127_801">
<rect width="89.4699" height="75.0833" fill="white"/>
</clipPath>
</defs>
</svg>
