<svg width="91" height="76" viewBox="0 0 91 76" fill="none" xmlns="http://www.w3.org/2000/svg">
<g clip-path="url(#clip0_5127_215)">
<path d="M45.7205 25.82C38.6982 25.82 32.9854 20.1071 32.9854 13.0849C32.9854 6.06265 38.6982 0.349792 45.7205 0.349792C52.7427 0.349792 58.4556 6.06265 58.4556 13.0849C58.4556 18.439 55.0745 23.2551 50.0343 25.0756C49.4872 25.2729 48.8773 24.986 48.68 24.4389C48.4827 23.8918 48.7697 23.282 49.3168 23.0847C53.514 21.569 56.339 17.5512 56.339 13.0849C56.339 7.22854 51.5768 2.45736 45.7115 2.45736C39.8462 2.45736 35.084 7.21958 35.084 13.0849C35.084 18.9502 39.8462 23.7124 45.7115 23.7124C46.2944 23.7124 46.7698 24.1878 46.7698 24.7707C46.7698 25.3537 46.2944 25.829 45.7115 25.829L45.7205 25.82Z" fill="currentColor"/>
<path d="M40.8776 9.56031C40.6175 9.56031 40.3575 9.46166 40.1512 9.27332C39.7297 8.86974 39.7117 8.20608 40.1063 7.7756C40.7521 7.08503 41.5144 6.52899 42.3574 6.12542C42.8865 5.8743 43.5143 6.08954 43.7654 6.61868C44.0166 7.14781 43.8013 7.7756 43.2722 8.02671C42.6534 8.32267 42.1063 8.72625 41.631 9.22848C41.4247 9.45269 41.1467 9.56031 40.8597 9.56031H40.8776Z" fill="currentColor"/>
<path d="M40.8779 18.726C40.5999 18.726 40.3218 18.6184 40.1156 18.3942C38.7524 16.9503 37.999 15.0669 37.999 13.0849C37.999 12.6723 38.0349 12.2508 38.0977 11.8472C38.1874 11.2733 38.7344 10.8787 39.3084 10.9683C39.8824 11.058 40.277 11.6051 40.1873 12.1791C40.1425 12.475 40.1156 12.78 40.1156 13.0849C40.1156 14.5288 40.6626 15.9009 41.6492 16.9413C42.0527 17.3628 42.0348 18.0354 41.6133 18.439C41.407 18.6363 41.1469 18.726 40.8868 18.726H40.8779Z" fill="currentColor"/>
<path d="M52.7166 34.4296C52.4296 34.4296 52.1426 34.3668 51.8736 34.2323L45.6495 31.1292L39.7125 34.1964C39.1205 34.5014 38.43 34.4745 37.856 34.1337C37.291 33.7839 36.9502 33.183 36.9502 32.5193V21.8559C36.9502 21.273 37.4255 20.7977 38.0085 20.7977C38.5914 20.7977 39.0667 21.273 39.0667 21.8559V32.1606L44.7886 29.21C45.3267 28.932 45.9634 28.932 46.5015 29.201L52.5103 32.1965V22.0622C52.5103 21.4793 52.9857 21.0039 53.5686 21.0039C54.1516 21.0039 54.6269 21.4793 54.6269 22.0622V32.5463C54.6269 33.2099 54.2951 33.8108 53.73 34.1606C53.4251 34.3489 53.0754 34.4475 52.7346 34.4475L52.7166 34.4296Z" fill="currentColor"/>
<path d="M27.4974 69.9355H18.7622C17.2555 69.9355 16.3587 69.2987 15.8654 68.7606C14.6547 67.4333 14.7264 65.5141 14.7533 65.1105V45.5325C14.7533 43.2276 16.26 41.5326 16.3228 41.4608L19.5783 38.304C19.9998 37.9004 20.6635 37.9094 21.076 38.3309C21.4886 38.7524 21.4707 39.4161 21.0491 39.8286L17.8385 42.9317C17.8385 42.9317 16.8609 44.0886 16.8609 45.5415V65.1553C16.8609 65.1553 16.8609 65.2181 16.8609 65.254C16.834 65.6306 16.8699 66.7427 17.4259 67.3436C17.7219 67.6665 18.1613 67.8279 18.7532 67.8279H27.4795C27.9369 67.8279 29.0131 67.6575 29.0131 66.2853V62.3751C29.0131 61.7922 29.4884 61.3169 30.0713 61.3169C30.6543 61.3169 31.1296 61.7922 31.1296 62.3751V66.2853C31.1296 67.6127 30.5915 68.4288 30.1431 68.8772C29.1117 69.9086 27.6768 69.9444 27.4884 69.9444L27.4974 69.9355Z" fill="currentColor"/>
<path d="M18.2959 41.416C17.6502 41.416 15.8655 41.3174 14.0449 40.3219C11.2109 38.7793 12.5292 36.1516 13.166 34.887L13.2288 34.7615C14.0987 33.0216 15.8296 32.4297 16.0179 32.3669C16.1256 32.331 16.2332 32.3131 16.3408 32.3131H23.1209C24.0446 30.7974 26.771 26.2774 27.8652 24.2595C29.4436 21.3627 32.3763 20.8156 32.4929 20.7977C33.0668 20.699 33.6139 21.0847 33.7126 21.6587C33.8112 22.2326 33.4345 22.7797 32.8606 22.8784C32.7619 22.8963 30.7889 23.2999 29.7127 25.2729C28.3674 27.7482 24.7621 33.6673 24.6096 33.9184C24.4213 34.2323 24.0805 34.4296 23.7038 34.4296H16.5291C16.2332 34.5552 15.4888 34.9498 15.1121 35.7031L15.0493 35.8377C14.1346 37.6583 14.2243 38.017 15.0493 38.4654C16.7354 39.3802 18.3946 39.2995 18.4125 39.2995C18.9954 39.2636 19.4977 39.712 19.5246 40.295C19.5604 40.8779 19.121 41.3712 18.5381 41.416C18.5201 41.416 18.4304 41.416 18.2869 41.416H18.2959Z" fill="currentColor"/>
<path d="M63.8013 69.9355C63.613 69.9355 62.187 69.8996 61.1467 68.8682C60.6983 68.4198 60.1602 67.6037 60.1602 66.2764V62.3662C60.1602 61.7832 60.6355 61.3079 61.2184 61.3079C61.8014 61.3079 62.2767 61.7832 62.2767 62.3662V66.2764C62.2767 67.6485 63.3529 67.8189 63.8193 67.8189H72.5455C73.1374 67.8189 73.5769 67.6575 73.8728 67.3346C74.4289 66.7248 74.4737 65.6127 74.4378 65.236C74.4378 65.2091 74.4378 65.1733 74.4378 65.1464V45.5325C74.4378 44.0527 73.4154 42.8868 73.4065 42.8779L70.2496 39.8196C69.8281 39.4161 69.8191 38.7434 70.2227 38.3219C70.6263 37.9004 71.2989 37.8914 71.7204 38.295L74.9311 41.407C75.0477 41.5326 76.5544 43.2276 76.5544 45.5325V65.1105C76.5813 65.5141 76.653 67.4333 75.4423 68.7606C74.949 69.2987 74.0522 69.9355 72.5455 69.9355H63.8103H63.8013Z" fill="currentColor"/>
<path d="M73.0024 41.416C72.8589 41.416 72.7692 41.416 72.7513 41.416C72.1683 41.3801 71.7289 40.8779 71.7648 40.2949C71.8006 39.712 72.3029 39.2636 72.8858 39.3084C72.8948 39.3084 74.5629 39.3891 76.24 38.4744C77.074 38.0259 77.1548 37.6672 76.24 35.8466L76.1772 35.7121C75.8005 34.9588 75.0562 34.5731 74.7602 34.4386H67.5855C67.2178 34.4386 66.877 34.2502 66.6797 33.9274C66.5272 33.6763 62.9219 27.7571 61.5767 25.2819C60.5005 23.2998 58.5184 22.9052 58.4288 22.8873C57.8548 22.7797 57.4781 22.2326 57.5857 21.6586C57.6934 21.0847 58.2315 20.708 58.8054 20.8066C58.931 20.8246 61.8637 21.3716 63.4331 24.2684C64.5273 26.2863 67.2626 30.8064 68.1774 32.322H74.9575C75.0651 32.322 75.1727 32.34 75.2804 32.3759C75.4777 32.4386 77.2086 33.0305 78.0695 34.7704L78.1323 34.896C78.7691 36.1605 80.0874 38.7883 77.2534 40.3308C75.4239 41.3263 73.6481 41.425 73.0024 41.425V41.416Z" fill="currentColor"/>
<path d="M60.0612 41.4071H31.0485C30.4656 41.4071 29.9902 40.9317 29.9902 40.3488C29.9902 39.7659 30.4656 39.2905 31.0485 39.2905H60.0612C60.6442 39.2905 61.1195 39.7659 61.1195 40.3488C61.1195 40.9317 60.6442 41.4071 60.0612 41.4071Z" fill="currentColor"/>
<path d="M31.7844 58.2497C31.3629 58.2497 30.9683 57.9986 30.8069 57.586C30.5917 57.0479 30.8517 56.4291 31.3988 56.2138C31.6499 56.1152 31.8472 56.0345 59.3802 56.1421C59.9631 56.1421 60.4384 56.6174 60.4295 57.2004C60.4295 57.7833 59.9272 58.2855 59.3712 58.2497C48.9051 58.2138 33.0669 58.1779 31.9459 58.2407C31.8921 58.2407 31.8472 58.2497 31.7934 58.2497H31.7844Z" fill="currentColor"/>
<path d="M65.693 63.4245H25.4518C24.8689 63.4245 24.3936 62.9491 24.3936 62.3662C24.3936 61.7832 24.8689 61.3079 25.4518 61.3079H65.693C66.2759 61.3079 66.7513 61.7832 66.7513 62.3662C66.7513 62.9491 66.2759 63.4245 65.693 63.4245Z" fill="currentColor"/>
<path d="M28.313 15.5601H21.237C20.654 15.5601 20.1787 15.0848 20.1787 14.5019C20.1787 13.9189 20.654 13.4436 21.237 13.4436H28.313C28.896 13.4436 29.3713 13.9189 29.3713 14.5019C29.3713 15.0848 28.896 15.5601 28.313 15.5601Z" fill="currentColor"/>
<path d="M10.0625 52.0974H1.05827C0.475324 52.0974 0 51.6221 0 51.0391C0 50.4562 0.475324 49.9808 1.05827 49.9808H10.0625C10.6455 49.9808 11.1208 50.4562 11.1208 51.0391C11.1208 51.6221 10.6455 52.0974 10.0625 52.0974Z" fill="currentColor"/>
<path d="M89.2715 52.0974H80.2673C79.6843 52.0974 79.209 51.6221 79.209 51.0391C79.209 50.4562 79.6843 49.9808 80.2673 49.9808H89.2715C89.8545 49.9808 90.3298 50.4562 90.3298 51.0391C90.3298 51.6221 89.8545 52.0974 89.2715 52.0974Z" fill="currentColor"/>
<path d="M69.8638 15.5601H62.7878C62.2048 15.5601 61.7295 15.0848 61.7295 14.5019C61.7295 13.9189 62.2048 13.4436 62.7878 13.4436H69.8638C70.4468 13.4436 70.9221 13.9189 70.9221 14.5019C70.9221 15.0848 70.4468 15.5601 69.8638 15.5601Z" fill="currentColor"/>
<path d="M29.2635 6.79806C28.9855 6.79806 28.7075 6.69044 28.5012 6.4752L24.008 1.7937C23.6044 1.37219 23.6134 0.699558 24.0349 0.295981C24.4564 -0.107596 25.1291 -0.0986281 25.5326 0.322886L30.0258 5.00438C30.4294 5.4259 30.4204 6.09853 29.9989 6.5021C29.7926 6.69941 29.5325 6.79806 29.2635 6.79806Z" fill="currentColor"/>
<path d="M62.16 6.79803C61.8999 6.79803 61.6308 6.69937 61.4246 6.50207C61.0031 6.09849 60.9941 5.42586 61.3977 5.00435L65.8908 0.32285C66.2944 -0.0986642 66.967 -0.116601 67.3886 0.295945C67.8101 0.699522 67.819 1.37215 67.4155 1.79367L62.9223 6.47516C62.716 6.6904 62.438 6.79803 62.16 6.79803Z" fill="currentColor"/>
<path d="M39.9807 51.7745H37.8551C37.2722 51.7745 36.7969 51.2992 36.7969 50.7162C36.7969 50.1333 37.2722 49.658 37.8551 49.658H39.9807C40.5636 49.658 41.0389 50.1333 41.0389 50.7162C41.0389 51.2992 40.5636 51.7745 39.9807 51.7745Z" fill="currentColor"/>
<path d="M52.8147 51.7745H42.8239C42.2409 51.7745 41.7656 51.2992 41.7656 50.7162C41.7656 50.1333 42.2409 49.658 42.8239 49.658H52.8147C53.3976 49.658 53.8729 50.1333 53.8729 50.7162C53.8729 51.2992 53.3976 51.7745 52.8147 51.7745Z" fill="currentColor"/>
<path d="M68.9396 75.0833H65.693C65.1101 75.0833 64.6348 74.608 64.6348 74.0251C64.6348 73.4421 65.1101 72.9668 65.693 72.9668H68.9396C69.5225 72.9668 69.9979 73.4421 69.9979 74.0251C69.9979 74.608 69.5225 75.0833 68.9396 75.0833Z" fill="currentColor"/>
<path d="M84.9489 75.0833H72.985C72.4021 75.0833 71.9268 74.608 71.9268 74.0251C71.9268 73.4421 72.4021 72.9668 72.985 72.9668H84.9489C85.5318 72.9668 86.0071 73.4421 86.0071 74.0251C86.0071 74.608 85.5318 75.0833 84.9489 75.0833Z" fill="currentColor"/>
<path d="M31.7844 53.0659C31.7217 53.0659 31.6589 53.0659 31.6051 53.0659H23.121C21.9282 53.0659 20.8789 52.492 20.1614 51.4337C19.1569 49.9629 19.0045 47.8643 19.7489 45.9451C20.8699 43.0752 23.677 43.0124 25.0492 43.3891C28.511 44.0348 30.6275 45.676 31.7665 46.5549C31.9997 46.7343 32.197 46.8867 32.3494 46.9854C33.3987 47.6311 35.3269 49.5683 34.5915 51.3978C34.0624 52.7162 32.6544 53.057 31.7755 53.057L31.7844 53.0659ZM23.7398 45.3352C23.0672 45.3352 22.1614 45.5684 21.7219 46.7163C21.2286 47.9719 21.3004 49.362 21.9102 50.2409C22.1344 50.5638 22.5201 50.9494 23.121 50.9494H31.6678C31.919 50.9584 32.5288 50.8956 32.6364 50.6176C32.7441 50.3396 32.0894 49.3082 31.2374 48.788C31.0311 48.6625 30.78 48.4652 30.475 48.232C29.4078 47.3979 27.6141 46.0078 24.6277 45.4608C24.5918 45.4608 24.5649 45.4428 24.529 45.4339C24.4035 45.398 24.1075 45.3352 23.7488 45.3352H23.7398Z" fill="currentColor"/>
<path d="M59.6043 53.0749C58.7792 53.0749 57.3622 52.7341 56.8331 51.4068C56.0977 49.5773 58.0259 47.6401 59.0752 46.9944C59.2277 46.8957 59.416 46.7432 59.6581 46.5639C60.7971 45.685 62.9137 44.0438 66.3755 43.398C67.7476 43.0214 70.5547 43.0841 71.6758 45.954C72.4291 47.8733 72.2677 49.9719 71.2632 51.4427C70.5458 52.492 69.4965 53.0749 68.3037 53.0749H59.7568C59.703 53.0749 59.6492 53.0749 59.5954 53.0749H59.6043ZM67.6849 45.3352C67.2902 45.3352 66.9853 45.4159 66.9046 45.4428C66.8687 45.4518 66.8329 45.4608 66.797 45.4697C63.8105 46.0168 62.0168 47.4069 60.9496 48.241C60.6447 48.4831 60.3846 48.6714 60.1873 48.797C59.3443 49.3172 58.6806 50.3485 58.7882 50.6266C58.9138 50.9315 59.5954 50.9584 59.694 50.9584H68.3037C68.9046 50.9584 69.2992 50.5727 69.5144 50.2499C70.1153 49.362 70.196 47.9809 69.7027 46.7253C69.2543 45.5774 68.3485 45.3442 67.6759 45.3442L67.6849 45.3352Z" fill="currentColor"/>
</g>
<defs>
<clipPath id="clip0_5127_215">
<rect width="90.3296" height="75.0833" fill="white"/>
</clipPath>
</defs>
</svg>
