<svg width="24" height="24" viewBox="0 0 24 24" fill="none" xmlns="http://www.w3.org/2000/svg">
<path d="M17 20V21H7V20H17ZM19 18V12C19 10.8954 18.1046 10 17 10H7C5.89543 10 5 10.8954 5 12V18C5 19.1046 5.89543 20 7 20V21L6.8457 20.9961C5.26055 20.9158 4 19.6051 4 18V12C4 10.3431 5.34315 9 7 9H17C18.6569 9 20 10.3431 20 12V18C20 19.6569 18.6569 21 17 21V20C18.1046 20 19 19.1046 19 18Z" fill="currentColor"/>
<path d="M16.5 8C16.5 5.51472 14.4853 3.5 12 3.5C9.51472 3.5 7.5 5.51472 7.5 8V10H6.5V8C6.5 4.96243 8.96243 2.5 12 2.5C15.0376 2.5 17.5 4.96243 17.5 8V10H16.5V8Z" fill="currentColor"/>
<path d="M11.5 13H12.5V17H11.5V13Z" fill="currentColor"/>
</svg>
