<svg width="32" height="32" viewBox="0 0 32 32" fill="none" xmlns="http://www.w3.org/2000/svg">
<path d="M6.23162 21.1666C3.28611 16.0648 5.03411 9.54116 10.1359 6.59564C15.2377 3.65012 21.7613 5.39812 24.7068 10.4999L23.5521 11.1666C20.9748 6.70251 15.2666 5.17301 10.8026 7.75034C6.3385 10.3277 4.809 16.0358 7.38633 20.4999C9.96365 24.964 15.6718 26.4935 20.1359 23.9161C22.3838 22.6183 23.8872 20.5278 24.4976 18.2L25.7872 18.5379C25.0903 21.1961 23.3714 23.5877 20.8026 25.0708C15.7008 28.0164 9.17714 26.2684 6.23162 21.1666Z" fill="currentColor"/>
<path d="M25.7959 13.72L21.4865 11.5892L26.1053 8.92255L25.7959 13.72Z" fill="currentColor"/>
</svg>
