<svg width="48" height="49" viewBox="0 0 48 49" fill="none" xmlns="http://www.w3.org/2000/svg">
<g clip-path="url(#clip0_5238_1148)">
<path d="M29.9673 14.1066C30.4139 14.1066 30.7843 13.7363 30.7843 13.2896C30.7843 12.843 30.4139 12.4727 29.9673 12.4727H19.2157C18.7691 12.4727 18.3987 12.843 18.3987 13.2896C18.3987 13.7363 18.7691 14.1066 19.2157 14.1066H29.9673Z" fill="currentColor"/>
<path d="M21.1111 22.7452C21.1111 22.2986 20.7407 21.9282 20.2941 21.9282H6.65574C6.20912 21.9282 5.83875 22.2986 5.83875 22.7452C5.83875 23.1918 6.20912 23.5622 6.65574 23.5622H20.2941C20.7407 23.5622 21.1111 23.1918 21.1111 22.7452Z" fill="currentColor"/>
<path d="M17.0043 29.8258C17.0043 29.3792 16.634 29.0088 16.1873 29.0088H6.65574C6.20912 29.0088 5.83875 29.3792 5.83875 29.8258C5.83875 30.2724 6.20912 30.6428 6.65574 30.6428H16.1873C16.634 30.6428 17.0043 30.2724 17.0043 29.8258Z" fill="currentColor"/>
<path d="M6.65574 36.0784C6.20912 36.0784 5.83875 36.4487 5.83875 36.8954C5.83875 37.342 6.20912 37.7124 6.65574 37.7124H15.098C15.5446 37.7124 15.915 37.342 15.915 36.8954C15.915 36.4487 15.5446 36.0784 15.098 36.0784H6.65574Z" fill="currentColor"/>
<path d="M20.4139 41.6014C20.6427 41.6014 20.8606 41.5469 21.0675 41.4489L27.549 38.2354C27.7342 38.1482 27.8867 38.0175 28.0283 37.865L46.9826 15.2615C48.5294 13.4097 48.2898 10.6428 46.4379 9.09595C44.5861 7.54911 41.8192 7.78876 40.2723 9.64062L39.9129 10.0763V6.63408C39.9129 2.98484 36.939 0.0109863 33.2898 0.0109863H13.3769L12.549 0.82798H12.4837V0.893339L0 13.1591V41.7103C0 45.3596 2.97386 48.3334 6.62309 48.3334H32.2113C36.4597 48.3334 39.9129 44.8803 39.9129 40.6319V29.9347C39.9129 29.4881 39.5425 29.1177 39.0959 29.1177C38.6492 29.1177 38.2789 29.4881 38.2789 29.9347V40.6319C38.2789 43.9761 35.5556 46.6994 32.2113 46.6994H6.62309C3.878 46.6994 1.63399 44.4663 1.63399 41.7103V14.1177H9.71678C12.146 14.1177 14.1176 12.1461 14.1176 9.71687V1.63408H33.2898C36.0349 1.63408 38.2789 3.8672 38.2789 6.62319V12.0153L21.3181 32.2332C21.1874 32.3857 21.0893 32.5709 21.0349 32.767L18.9978 39.706C18.8344 40.2724 19.0196 40.8824 19.4662 41.2637C19.7386 41.4925 20.0763 41.6123 20.4139 41.6123V41.6014ZM9.71678 12.4838H3.02832L12.4837 3.18092V9.71687C12.4837 11.2419 11.2418 12.4838 9.71678 12.4838ZM22.5708 33.279L41.5251 10.6755C42.0697 10.0328 42.8431 9.69508 43.6275 9.69508C44.2484 9.69508 44.8802 9.90205 45.3922 10.3378C46.5468 11.3073 46.6993 13.0393 45.7299 14.2049L26.8192 36.7648L20.6536 39.8258L22.5599 33.279H22.5708Z" fill="currentColor"/>
</g>
<defs>
<clipPath id="clip0_5238_1148">
<rect width="48.0065" height="48.3333" fill="white"/>
</clipPath>
</defs>
</svg>
