<svg width="41" height="49" viewBox="0 0 41 49" fill="none" xmlns="http://www.w3.org/2000/svg">
<g clip-path="url(#clip0_5238_2563)">
<path d="M20.1414 43.0869H6.11076C3.57801 43.0869 1.50759 41.0265 1.50759 38.4837V13.0256H8.96513C11.2064 13.0256 13.0256 11.2064 13.0256 8.96513V1.50759H30.7146C33.2474 1.50759 35.3178 3.56796 35.3178 6.11076V27.6291C35.3178 28.0412 35.6595 28.3829 36.0716 28.3829C36.4837 28.3829 36.8254 28.0412 36.8254 27.6291V6.11076C36.8254 2.74381 34.0816 0 30.7146 0H12.3421L11.5783 0.753795H11.518V0.814099L0 12.1411V38.4837C0 41.8507 2.74381 44.5945 6.11076 44.5945H20.1414C20.5535 44.5945 20.8952 44.2528 20.8952 43.8407C20.8952 43.4286 20.5535 43.0869 20.1414 43.0869ZM11.518 8.96513C11.518 10.3722 10.3722 11.518 8.96513 11.518H2.79407L11.518 2.93478V8.96513Z" fill="currentColor"/>
<path d="M31.2071 28.8652C25.8401 28.8652 21.4781 33.2272 21.4781 38.5942C21.4781 43.9612 25.8401 48.3232 31.2071 48.3232C36.5741 48.3232 40.9361 43.9612 40.9361 38.5942C40.9361 33.2272 36.5741 28.8652 31.2071 28.8652ZM31.2071 46.8257C26.6743 46.8257 22.9857 43.1371 22.9857 38.6043C22.9857 34.0714 26.6743 30.3829 31.2071 30.3829C35.7399 30.3829 39.4285 34.0714 39.4285 38.6043C39.4285 43.1371 35.7399 46.8257 31.2071 46.8257Z" fill="currentColor"/>
<path d="M37.0063 35.9007C36.7249 35.5991 36.2424 35.579 35.9409 35.8605L30.5739 40.8757L27.3979 38.4736C27.0662 38.2224 26.5938 38.2827 26.3426 38.6143C26.0913 38.946 26.1516 39.4184 26.4833 39.6696L30.6643 42.8456L36.9661 36.956C37.2676 36.6746 37.2877 36.1921 37.0063 35.8906V35.9007Z" fill="currentColor"/>
<path d="M30.0714 10.3621H20.1515C19.7394 10.3621 19.3977 10.7038 19.3977 11.1159C19.3977 11.5279 19.7394 11.8697 20.1515 11.8697H30.0714C30.4835 11.8697 30.8252 11.5279 30.8252 11.1159C30.8252 10.7038 30.4835 10.3621 30.0714 10.3621Z" fill="currentColor"/>
<path d="M30.0714 19.0962H6.71376C6.30168 19.0962 5.95996 19.4379 5.95996 19.85C5.95996 20.2621 6.30168 20.6038 6.71376 20.6038H30.0714C30.4834 20.6038 30.8251 20.2621 30.8251 19.85C30.8251 19.4379 30.4834 19.0962 30.0714 19.0962Z" fill="currentColor"/>
<path d="M20.1514 25.6189H6.71376C6.30168 25.6189 5.95996 25.9606 5.95996 26.3727C5.95996 26.7848 6.30168 27.1265 6.71376 27.1265H20.1514C20.5635 27.1265 20.9052 26.7848 20.9052 26.3727C20.9052 25.9606 20.5635 25.6189 20.1514 25.6189Z" fill="currentColor"/>
<path d="M6.71376 33.6594H17.2669C17.679 33.6594 18.0207 33.3177 18.0207 32.9057C18.0207 32.4936 17.679 32.1519 17.2669 32.1519H6.71376C6.30168 32.1519 5.95996 32.4936 5.95996 32.9057C5.95996 33.3177 6.30168 33.6594 6.71376 33.6594Z" fill="currentColor"/>
</g>
<defs>
<clipPath id="clip0_5238_2563">
<rect width="40.9361" height="48.3333" fill="white"/>
</clipPath>
</defs>
</svg>
