<svg width="42" height="49" viewBox="0 0 42 49" fill="none" xmlns="http://www.w3.org/2000/svg">
<g clip-path="url(#clip0_5238_1498)">
<path d="M36.5325 2.3539H27.4307C27.0018 2.3539 26.6461 2.7096 26.6461 3.13853C26.6461 3.56746 27.0018 3.92316 27.4307 3.92316H36.5325C38.3005 3.92316 39.7338 5.35642 39.7338 7.12446V43.5628C39.7338 45.3308 38.3005 46.7641 36.5325 46.7641H4.77056C3.00253 46.7641 1.56926 45.3308 1.56926 43.5628V7.12446C1.56926 5.35642 3.00253 3.92316 4.77056 3.92316H8.26479C8.41126 3.92316 8.5368 3.87085 8.65188 3.80808V21.2688L16.2157 15.7868L23.7796 21.2688V0H8.65188V2.46898C8.5368 2.4062 8.41126 2.3539 8.26479 2.3539H4.77056C2.14466 2.3539 0 4.49856 0 7.12446V43.5628C0 46.1887 2.14466 48.3333 4.77056 48.3333H36.5325C39.1584 48.3333 41.303 46.1887 41.303 43.5628V7.12446C41.303 4.49856 39.1584 2.3539 36.5325 2.3539ZM10.2211 1.56926H22.2103V18.2035L16.2157 13.8618L10.2211 18.2035V1.56926Z" fill="currentColor"/>
<path d="M15.2533 32.0026C14.9185 31.7097 14.4163 31.7515 14.1234 32.0863C13.8305 32.4211 13.8723 32.9232 14.2071 33.2162L21.8546 39.8175L32.5361 29.4813C32.8499 29.1779 32.8604 28.6653 32.557 28.3515C32.2536 28.0376 31.741 28.0271 31.4271 28.3305L21.7919 37.652L15.2533 32.0026Z" fill="currentColor"/>
</g>
<defs>
<clipPath id="clip0_5238_1498">
<rect width="41.303" height="48.3333" fill="white"/>
</clipPath>
</defs>
</svg>
