<svg width="50" height="34" viewBox="0 0 50 34" fill="none" xmlns="http://www.w3.org/2000/svg">
<g clip-path="url(#clip0_5238_2601)">
<path d="M43.167 0H6.24299C2.80319 0 0 2.80319 0 6.24299V27.4877C0 30.9891 2.84426 33.8333 6.34568 33.8333H43.3621C46.8019 33.8333 49.6051 31.0301 49.6051 27.5903V6.42782C49.6051 2.88533 46.7198 0 43.1773 0H43.167ZM48.0546 27.5903C48.0546 30.1779 45.9497 32.2931 43.3519 32.2931H6.34568C3.69651 32.2931 1.54021 30.1368 1.54021 27.4877V6.24299C1.54021 3.64517 3.64517 1.54021 6.24299 1.54021H43.1773C45.8675 1.54021 48.0649 3.72731 48.0649 6.42782V27.5903H48.0546Z" fill="currentColor"/>
<path d="M23.5139 8.60464C23.1853 8.33767 22.6925 8.39927 22.4358 8.72785C22.1688 9.05643 22.2304 9.5493 22.559 9.806C24.8693 11.6337 26.1939 14.3753 26.1939 17.3222C26.1939 19.7455 25.28 21.9531 23.8014 23.6371C23.2264 21.7991 21.5938 19.0267 16.9937 19.0267C14.4883 19.0267 12.5887 19.7352 11.3462 21.1317C10.4632 22.1174 10.0935 23.2572 9.92923 24.171C8.11178 22.3947 7.02337 19.9406 7.02337 17.3325C7.02337 12.0444 11.3257 7.74212 16.6138 7.74212C17.8151 7.74212 18.996 7.95775 20.1049 8.39927C20.4951 8.5533 20.9469 8.3582 21.1009 7.95775C21.2549 7.55729 21.0598 7.11576 20.6594 6.96174C19.3656 6.45861 18.0102 6.2019 16.6138 6.2019C10.4734 6.2019 5.48315 11.1922 5.48315 17.3325C5.48315 20.9161 7.24926 24.2737 10.0935 26.3479C10.1038 26.3581 10.1243 26.3684 10.1449 26.3787C10.6685 26.7586 11.2333 27.0975 11.8288 27.385C11.9315 27.4363 12.0445 27.4568 12.1574 27.4568C12.4449 27.4568 12.7222 27.2925 12.8556 27.0153C13.0405 26.6354 12.8762 26.1733 12.4963 25.9885C12.1061 25.8037 11.7261 25.588 11.3668 25.3519C11.3668 24.7153 11.49 23.2777 12.4963 22.1688C13.4409 21.1112 14.9503 20.5772 16.9937 20.5772C21.4295 20.5772 22.3434 23.6987 22.5384 24.859C20.9058 26.1425 18.8522 26.9229 16.6138 26.9229C16.1004 26.9229 15.5869 26.8818 15.0838 26.7997C14.6628 26.7278 14.2726 27.0153 14.2008 27.4363C14.1289 27.8573 14.4164 28.2475 14.8374 28.3194C15.4227 28.4118 16.0182 28.4631 16.6138 28.4631C19.2732 28.4631 21.7067 27.5287 23.6269 25.968C23.8014 25.9064 23.9349 25.7729 24.0273 25.6188C26.3068 23.5755 27.7444 20.6286 27.7444 17.3325C27.7444 14.0365 26.2041 10.7301 23.5242 8.60464H23.5139Z" fill="currentColor"/>
<path d="M16.7678 11.3462C14.9196 11.3462 13.4102 12.8556 13.4102 14.7039C13.4102 16.5521 14.9196 18.0615 16.7678 18.0615C18.6161 18.0615 20.1255 16.5521 20.1255 14.7039C20.1255 12.8556 18.6161 11.3462 16.7678 11.3462ZM16.7678 16.5213C15.7615 16.5213 14.9504 15.7101 14.9504 14.7039C14.9504 13.6976 15.7615 12.8864 16.7678 12.8864C17.7741 12.8864 18.5853 13.6976 18.5853 14.7039C18.5853 15.7101 17.7741 16.5213 16.7678 16.5213Z" fill="currentColor"/>
<path d="M43.6394 9.12842H30.2704C29.8494 9.12842 29.5002 9.47753 29.5002 9.89852C29.5002 10.3195 29.8494 10.6686 30.2704 10.6686H43.6394C44.0604 10.6686 44.4095 10.3195 44.4095 9.89852C44.4095 9.47753 44.0604 9.12842 43.6394 9.12842Z" fill="currentColor"/>
<path d="M43.6393 13.9338H32.8989C32.4779 13.9338 32.1288 14.283 32.1288 14.7039C32.1288 15.1249 32.4779 15.4741 32.8989 15.4741H43.6393C44.0603 15.4741 44.4094 15.1249 44.4094 14.7039C44.4094 14.283 44.0603 13.9338 43.6393 13.9338Z" fill="currentColor"/>
<path d="M43.6393 18.7495H32.8989C32.4779 18.7495 32.1288 19.0986 32.1288 19.5196C32.1288 19.9406 32.4779 20.2897 32.8989 20.2897H43.6393C44.0603 20.2897 44.4094 19.9406 44.4094 19.5196C44.4094 19.0986 44.0603 18.7495 43.6393 18.7495Z" fill="currentColor"/>
<path d="M43.6394 23.5549H30.2704C29.8494 23.5549 29.5002 23.904 29.5002 24.325C29.5002 24.746 29.8494 25.0951 30.2704 25.0951H43.6394C44.0604 25.0951 44.4095 24.746 44.4095 24.325C44.4095 23.904 44.0604 23.5549 43.6394 23.5549Z" fill="currentColor"/>
</g>
<defs>
<clipPath id="clip0_5238_2601">
<rect width="49.5948" height="33.8333" fill="white"/>
</clipPath>
</defs>
</svg>
