<svg width="64" height="64" viewBox="0 0 64 64" fill="none" xmlns="http://www.w3.org/2000/svg">
<path d="M14.4553 8H49.5441C54.577 8 58.6663 12.1535 58.6663 17.2655V38.332C58.6663 43.444 54.577 47.5975 49.5441 47.5975H17.9662C10.9951 47.5975 5.33301 41.8465 5.33301 34.7659V17.2655C5.33301 12.1535 9.4223 8 14.4553 8Z" fill="#A10076"/>
<path d="M8.37793 43.1445L22.2389 58.4703C22.7158 58.9959 23.5276 58.3981 23.1927 57.7694L16.5565 43.7217L8.37793 43.1548V43.1445Z" fill="#A10076"/>
<path d="M28.0934 22.2733V20.5109H29.2197V22.2733C29.2197 23.8296 30.2142 25.3653 31.8681 26.0455L31.2289 27.004C30.0011 26.4475 29.1183 25.4374 28.6515 24.2316C28.1847 25.5302 27.2309 26.6742 25.9625 27.2411L25.3232 26.3135C27.028 25.5405 28.0934 23.7884 28.0934 22.263V22.2733ZM31.5942 28.6118V28.2099H32.7509V28.6118C32.7509 30.3639 34.9833 31.7862 37.3172 32.1366L36.8301 33.0642C34.8514 32.7241 32.9843 31.7141 32.1726 30.2299C31.3506 31.7141 29.4836 32.7241 27.4846 33.0642L27.028 32.1366C29.3517 31.7862 31.5942 30.3639 31.5942 28.6118ZM30.7114 22.7681H32.8118V19.9853H33.9382V27.6224H32.8118V23.7575H30.7114V22.7681ZM36.5257 28.8592H35.4298V19.707H36.5257V28.8592Z" fill="white"/>
<path d="M39.093 34.9814H37.9971L38.819 30.8691H40.2497L39.093 34.9814Z" fill="white"/>
</svg>
