<svg width="64" height="64" viewBox="0 0 64 64" fill="none" xmlns="http://www.w3.org/2000/svg">
<path d="M49.5441 47.5975H17.9662C10.985 47.5975 5.33301 41.8568 5.33301 34.7659V17.2655C5.33301 12.1535 9.4223 8 14.4553 8H49.5441C54.5872 8 58.6663 12.1535 58.6663 17.2655V38.332C58.6663 43.4543 54.577 47.5975 49.5441 47.5975Z" fill="#A10076"/>
<path d="M8.37793 43.1455L22.2389 58.4712C22.7158 58.9969 23.5276 58.3991 23.1927 57.7704L16.5565 43.7227L8.37793 43.1558V43.1455Z" fill="#A10076"/>
<path d="M19.4785 23.3053H22.888V21.3265H24.0447V23.3053H27.3324V24.2947H19.4785V23.3053ZM23.4663 25.4078C25.3537 25.4078 26.7033 26.6755 26.7236 28.4998C26.7033 30.3034 25.3537 31.5711 23.4663 31.5608C21.5891 31.5711 20.2294 30.3034 20.2396 28.4998C20.2193 26.6755 21.5891 25.4078 23.4663 25.4078ZM23.4663 30.5714C24.6941 30.5714 25.5972 29.7159 25.5972 28.4998C25.5972 27.2836 24.7043 26.3973 23.4663 26.3973C22.2284 26.3973 21.3557 27.2733 21.3659 28.4998C21.3456 29.7263 22.2487 30.5714 23.4663 30.5714ZM29.7982 26.7065H31.9899V27.6959H29.7982V34.5909H28.6414V21.1719H29.7982V26.7065Z" fill="white"/>
<path d="M32.8936 22.4705H34.0503V30.1694C35.9681 30.1694 37.9468 30.0148 40.1082 29.551L40.2604 30.5714C37.9976 31.0146 35.9377 31.1589 33.9286 31.1589H32.8936V22.4705ZM44.6947 27.5104H42.5638V34.56H41.3766V21.1719H42.5638V26.5209H44.6947V27.5104Z" fill="white"/>
<path d="M46.1144 36.4453H45.0186L45.8405 32.333H47.2712L46.1144 36.4453Z" fill="white"/>
</svg>
