<svg width="64" height="64" viewBox="0 0 64 64" fill="none" xmlns="http://www.w3.org/2000/svg">
<path d="M46.0338 47.5977L14.4559 47.5977C9.4128 47.5977 5.33365 43.4441 5.33365 38.3321L5.33365 17.2657C5.33365 12.1537 9.42295 8.00015 14.4559 8.00015L49.5447 8.00015C54.5777 8.00015 58.667 12.1537 58.667 17.2657L58.667 34.7661C58.667 41.8466 53.0049 47.5977 46.0338 47.5977Z" fill="#A10076"/>
<path d="M55.6231 43.1445L41.7621 58.4703C41.2852 58.9959 40.4734 58.3981 40.8083 57.7694L47.4445 43.7217L55.6231 43.1548V43.1445Z" fill="#A10076"/>
<path d="M26.896 27.5722C28.276 27.5516 29.6459 27.4794 31.2187 27.1393L31.3405 28.1288C29.5749 28.4998 28.1137 28.5822 26.5612 28.5925H25.7393V22.3777H26.896V27.5722ZM31.2796 30.0458V29.551H32.4364V30.0458C32.4161 31.8288 34.6586 33.2408 36.9721 33.6015L36.5155 34.5291C34.5368 34.1684 32.6495 33.1583 31.8478 31.6536C31.0462 33.1583 29.1588 34.1684 27.1802 34.5291L26.754 33.6015C29.0574 33.2408 31.2796 31.8185 31.2897 30.0458H31.2796ZM29.6662 24.2329H32.5277V21.4502H33.6236V29.0563H32.5277V25.2223H29.6662V24.2329ZM35.1761 21.1719H36.272V30.2622H35.1761V21.1719Z" fill="white"/>
<path d="M38.8078 36.4463H37.7119L38.5338 32.334H39.9646L38.8078 36.4463Z" fill="white"/>
</svg>
