<svg width="64" height="64" viewBox="0 0 64 64" fill="none" xmlns="http://www.w3.org/2000/svg">
<path d="M46.0338 47.5977L14.4559 47.5977C9.4128 47.5977 5.33365 43.4441 5.33365 38.3321L5.33365 17.2657C5.33365 12.1537 9.42295 8.00015 14.4559 8.00015L49.5447 8.00015C54.5777 8.00015 58.667 12.1537 58.667 17.2657L58.667 34.7661C58.667 41.8466 53.0049 47.5977 46.0338 47.5977Z" fill="#A10076"/>
<path d="M55.6231 43.1445L41.7621 58.4703C41.2852 58.9959 40.4734 58.3981 40.8083 57.7694L47.4445 43.7217L55.6231 43.1548V43.1445Z" fill="#A10076"/>
<path d="M25.5972 24.1711H29.0472V21.1719H30.204V34.5909H29.0472V29.3964H25.6682C25.1203 30.7569 24.0853 31.5402 22.8067 31.5608C20.8585 31.5402 19.4886 29.7366 19.5191 26.8611C19.4886 24.0165 20.8585 22.2128 22.8067 22.1922C24.0345 22.2128 25.0289 22.924 25.587 24.1711H25.5972ZM22.8169 30.4786C24.1259 30.4992 25.0188 29.0563 25.0087 26.8611C25.0289 24.6967 24.1259 23.2641 22.8169 23.2435C21.5282 23.2641 20.6251 24.6967 20.6251 26.8611C20.6251 29.0254 21.5282 30.4889 22.8169 30.4786ZM26.135 26.8611C26.135 27.4176 26.0741 27.9329 25.9828 28.407H29.0574V25.1605H25.9422C26.064 25.6758 26.135 26.2427 26.135 26.8611Z" fill="white"/>
<path d="M35.3984 23.2435V21.8212H36.5247V23.3053C36.5247 25.1605 37.8743 26.8714 39.7819 27.5722L39.1731 28.4998C37.7119 27.9432 36.5551 26.8198 35.9767 25.4078C35.4288 26.9847 34.2416 28.2009 32.6891 28.809L32.0498 27.8814C34.0589 27.1187 35.3781 25.3254 35.3984 23.2435ZM38.1381 29.953V29.551H39.3253V29.953C39.3152 31.8082 41.4765 33.1995 43.8306 33.6015L43.374 34.5291C41.3446 34.1684 39.4877 33.1377 38.7165 31.5917C37.925 33.1171 36.0681 34.1684 34.0589 34.5291L33.6023 33.6015C35.926 33.1995 38.1076 31.7566 38.1381 29.953ZM42.9783 30.4786H41.8215V24.9131H38.8687V23.9237H41.8215V21.1719H42.9783V30.4786Z" fill="white"/>
<path d="M45.8303 36.4463H44.7344L45.5563 32.334H46.987L45.8303 36.4463Z" fill="white"/>
</svg>
