<svg width="64" height="64" viewBox="0 0 64 64" fill="none" xmlns="http://www.w3.org/2000/svg">
<path d="M14.4553 8H49.5441C54.577 8 58.6663 12.1535 58.6663 17.2655V38.332C58.6663 43.444 54.577 47.5975 49.5441 47.5975H17.9662C10.9951 47.5975 5.33301 41.8465 5.33301 34.7659V17.2655C5.33301 12.1535 9.4223 8 14.4553 8Z" fill="#A10076"/>
<path d="M8.37793 43.1445L22.2389 58.4703C22.7158 58.9959 23.5276 58.3981 23.1927 57.7694L16.5565 43.7217L8.37793 43.1548V43.1445Z" fill="#A10076"/>
<path d="M21.0107 22.4705H27.1599V23.4599H22.1675V30.2313C24.5521 30.2313 26.2467 30.1385 28.1949 29.7675L28.3471 30.7878C26.2974 31.1589 24.5622 31.2413 22.0457 31.2516H21.0107V22.4705ZM30.6607 26.4591H32.8525V27.4485H30.6607V34.5909H29.4735V21.1719H30.6607V26.4591Z" fill="white"/>
<path d="M36.5556 23.2435V21.8212H37.6819V23.3053C37.6819 25.1605 39.0315 26.8714 40.9391 27.5722L40.3303 28.4998C38.8691 27.9432 37.7124 26.8198 37.134 25.4078C36.586 26.9847 35.3988 28.2009 33.8463 28.809L33.207 27.8814C35.2162 27.1187 36.5353 25.3254 36.5556 23.2435ZM39.2953 29.953V29.551H40.4825V29.953C40.4724 31.8082 42.6337 33.1995 44.9879 33.6015L44.5312 34.5291C42.5018 34.1787 40.6449 33.1377 39.8737 31.5917C39.0822 33.1171 37.2253 34.1684 35.2162 34.5291L34.7595 33.6015C37.0832 33.1995 39.2649 31.7566 39.2953 29.953ZM44.1355 30.4786H42.9787V24.9131H40.0259V23.9237H42.9787V21.1719H44.1355V30.4786Z" fill="white"/>
<path d="M46.9768 36.4463H45.8809L46.7028 32.334H48.1335L46.9768 36.4463Z" fill="white"/>
</svg>
