<svg width="64" height="64" viewBox="0 0 64 64" fill="none" xmlns="http://www.w3.org/2000/svg">
<path d="M46.0338 47.5977L14.4559 47.5977C9.4128 47.5977 5.33365 43.4441 5.33365 38.3321L5.33365 17.2657C5.33365 12.1537 9.42295 8.00015 14.4559 8.00015L49.5447 8.00015C54.5777 8.00015 58.667 12.1537 58.667 17.2657L58.667 34.7661C58.667 41.8466 53.0049 47.5977 46.0338 47.5977Z" fill="#A10076"/>
<path d="M55.6231 43.1455L41.7621 58.4712C41.2852 58.9969 40.4734 58.3991 40.8083 57.7704L47.4445 43.7227L55.6231 43.1558V43.1455Z" fill="#A10076"/>
<path d="M25.0391 26.799H37.0634V27.7884H31.6144V29.1179H35.5109V32.1171H27.657V33.4776H35.9066V34.4361H26.5307V31.2514H34.3846V30.0455H26.5003V29.1179H30.4576V27.7884H25.0391V26.799ZM35.6327 25.7168H26.622V21.6973H35.5109V22.6558H27.8092V24.7583H35.6327V25.7168Z" fill="white"/>
<path d="M38.8088 36.4463H37.7129L38.5348 32.334H39.9656L38.8088 36.4463Z" fill="white"/>
</svg>
